<?xml version="1.0" encoding="UTF-8" standalone="no"?>
<svg
   xmlns:dc="http://purl.org/dc/elements/1.1/"
   xmlns:cc="http://creativecommons.org/ns#"
   xmlns:rdf="http://www.w3.org/1999/02/22-rdf-syntax-ns#"
   xmlns:svg="http://www.w3.org/2000/svg"
   xmlns="http://www.w3.org/2000/svg"
   xmlns:sodipodi="http://sodipodi.sourceforge.net/DTD/sodipodi-0.dtd"
   xmlns:inkscape="http://www.inkscape.org/namespaces/inkscape"
   inkscape:version="1.0 (1.0+r73+1)"
   sodipodi:docname="clouds.svg"
   viewBox="0 0 500 250"
   height="250"
   width="500"
   xml:space="preserve"
   id="svg2"
   version="1.1"><metadata
     id="metadata8"><rdf:RDF><cc:Work
         rdf:about=""><dc:format>image/svg+xml</dc:format><dc:type
           rdf:resource="http://purl.org/dc/dcmitype/StillImage" /><dc:title></dc:title></cc:Work></rdf:RDF></metadata><defs
     id="defs6" /><sodipodi:namedview
     inkscape:guide-bbox="true"
     showguides="true"
     inkscape:current-layer="g10"
     inkscape:window-maximized="1"
     inkscape:window-y="0"
     inkscape:window-x="0"
     inkscape:cy="115.01293"
     inkscape:cx="292.26882"
     inkscape:zoom="1.2162237"
     fit-margin-bottom="0"
     fit-margin-right="0"
     fit-margin-left="0"
     fit-margin-top="0"
     showgrid="false"
     inkscape:document-rotation="0"
     id="namedview4"
     inkscape:window-height="715"
     inkscape:window-width="1366"
     inkscape:pageshadow="2"
     inkscape:pageopacity="1"
     guidetolerance="10"
     gridtolerance="10"
     objecttolerance="10"
     borderopacity="1"
     bordercolor="#666666"
     pagecolor="#5da6e0" /><g
     transform="matrix(1.3333333,0,0,-1.3333333,2.4693137,522.17461)"
     inkscape:label="ink_ext_XXXXXX"
     inkscape:groupmode="layer"
     id="g10"><path
       id="path42-9"
       style="fill:#e0f5fd;fill-opacity:1;fill-rule:nonzero;stroke:none;stroke-width:0.0999997"
       d="m 22.648416,227.34276 c -2.165001,-0.647 -4.184001,-2.194 -5.650001,-3.781 -0.028,1.279 -0.91,2.384 -2.12,2.79 -1.207,0.404 -2.545,0.163 -3.722,-0.319 -0.883,-0.362 -3.4510004,-1.857 -3.3880004,-4.795 -1.27,-0.792 -2.052999,-2.57 -2.186999,-3.06 -0.4530004,-1.663 0.218,-3.639 1.617999,-4.649 1.931001,-1.392 4.8060004,-1.035 6.5920004,0.539 0.882,-1.471 2.344,-3.539 2.657,-3.856 1.159001,-1.17 2.494001,-2.211 4.021001,-2.828 3.954,-1.599 6.268,-1.192 9.829,0.057 2.608,0.914 6.562999,3.531 7.231999,6.352 0.719001,-1.1 1.958001,-1.844 3.267001,-1.962 1.557,-0.141 4.251,0.766 5.158999,1.853 1.301,-1.491 3.324,-1.506 5.147001,-1.122 1.803999,0.381 3.651,1.019 4.878999,2.394 1.906,2.137 2.506,4.956 1.843,7.688 -0.346999,1.433 -1.062,2.807 -2.186999,3.761 -1.219001,1.033 -3.276,1.691 -4.852001,1.864 -0.372,0.041 -2.124999,-0.039 -3.351,-0.472 -0.328,2.798 -2.821,5.049 -5.587,5.588 -2.766,0.538 -5.671,-0.419 -7.951,-2.076 -0.690999,-0.503 -3.348999,-3.055 -4.035,-5.829 -1.425,1.6 -3.676,2.361 -5.806999,2.146 -0.473001,-0.047 -0.943,-0.144 -1.407,-0.283" /><path
       id="path44-4"
       style="fill:#add5f2;fill-opacity:1;fill-rule:nonzero;stroke:none;stroke-width:0.0999997"
       d="m 5.4744156,216.65976 c 0.123,-1.224 0.737,-2.419 1.724999,-3.131 1.931001,-1.392 4.8060004,-1.035 6.5920004,0.539 0.882,-1.471 2.344,-3.539 2.657,-3.856 1.159001,-1.17 2.494001,-2.211 4.021001,-2.828 3.954,-1.599 6.268,-1.192 9.829,0.057 2.608,0.914 6.562999,3.531 7.231999,6.352 0.719001,-1.1 1.958001,-1.844 3.267001,-1.962 1.557,-0.14 4.251,0.766 5.158999,1.853 1.301,-1.491 3.324,-1.506 5.147001,-1.122 1.803999,0.381 3.651,1.019 4.878999,2.394 1.093,1.225 1.742001,2.678 1.984,4.206 -2.593999,-4.508 -5.977,-3.339 -7.831,-1.253 0.416001,-0.063 0.843,-0.07 1.264001,-0.02 1.707,0.219 3.181999,1.382 3.844999,2.844 -1.173,-1.083 -2.494999,-1.882 -3.943999,-2.061 -1.445,-0.194 -2.918,0.28 -4.262001,1.142 0.462,-0.656 1.113,-1.207 1.879,-1.544 0.249,-0.115 0.513,-0.197 0.782001,-0.265 -0.729,-1.546 -2.931001,-2.833 -5.421001,-3.167 -1.830999,-0.245 -3.760999,0.342 -5.172,1.534 1.286001,0.931 2.28,2.183 2.912001,3.564 -1.134,-1.086 -2.305,-2.044 -3.615,-2.695 -1.302001,-0.654 -2.700001,-1.033 -4.128001,-1.105 -1.425999,-0.077 -2.845999,0.142 -4.201999,0.656 -1.357001,0.518 -2.634,1.305 -3.868001,2.285 0.725,-1.402 1.914,-2.594 3.355001,-3.385 1.441,-0.796 3.148999,-1.163 4.804,-1.037 0.965,0.065 1.915999,0.298 2.812999,0.656 -2.332,-2.633 -6.316,-5.361 -12.096999,-4.745 -2.802,0.299 -5.738,1.775 -6.958001,4.1 -2.159,-1.036 -3.857,-0.093 -4.328,2.856 0.032,0.01 0.064,0.016 0.096,0.027 0.669,0.226 1.268,0.643 1.72,1.162 0.446,0.527 0.746,1.143 0.923,1.777 -0.385,-0.537 -0.8,-1.027 -1.277,-1.418 -0.477,-0.389 -1.008,-0.683 -1.585,-0.836 -0.568,-0.173 -1.187,-0.206 -1.788,-0.207 -0.601,0.003 -1.218,0.102 -1.8969994,0.18 0.5069994,-0.445 1.1399994,-0.771 1.8399994,-0.865 0.545,-0.077 1.094,-0.039 1.631,0.087 -1.646,-3.664 -6.7140004,-4.072 -7.9829994,-0.769" /><path
       id="path46-8"
       style="fill:#ffffff;fill-opacity:1;fill-rule:nonzero;stroke:none;stroke-width:0.0999997"
       d="m 45.873416,224.01976 c 2.232999,2.474 8.415,3.637 11.540999,-0.146 -0.400999,0.967 -0.981,1.856 -1.775999,2.531 -1.219001,1.033 -3.276,1.691 -4.852001,1.864 -0.372,0.041 -2.124999,-0.039 -3.351,-0.472 -0.328,2.798 -2.821,5.049 -5.587,5.588 -2.766,0.538 -5.671,-0.419 -7.951,-2.076 -0.690999,-0.503 -3.348999,-3.055 -4.035,-5.829 -1.425,1.6 -3.676,2.361 -5.806999,2.146 -0.473001,-0.047 -0.943,-0.144 -1.407,-0.283 -2.165001,-0.647 -4.184001,-2.194 -5.650001,-3.781 -0.028,1.279 -0.91,2.384 -2.12,2.79 -1.207,0.404 -2.545,0.163 -3.722,-0.319 -0.883,-0.362 -3.4510004,-1.857 -3.3880004,-4.795 -1.27,-0.792 -2.052999,-2.57 -2.186999,-3.06 -0.014,-0.052 -0.017,-0.106 -0.029,-0.159 0.86,1.923 2.139,2.213 3.653,1.594 -0.995,1.59 0.396,3.723 2.1389994,4.417 3.204,1.276 5.587,-0.851 5.361,-2.714 1.125,0.973 2.343001,-0.187 2.313001,-1.303 0.71,2.082 2.648,3.496 4.754,4.13 1.756,0.529 3.418999,0.27 4.562999,-0.145 -0.636,-0.482 -1.204999,-1.045 -1.627999,-1.709 2.169,1.194 4.342,1.832 6.627,2.133 1.138,0.152 2.289,0.212 3.458999,0.217 1.172,-0.004 2.353001,-0.081 3.6,-0.151 -1.056999,0.666 -2.253,1.086 -3.486,1.316 -0.46,0.089 -0.927,0.141 -1.396,0.172 3.329001,3.064 9.078001,2.298 10.362001,-1.956" /><path
       id="path110-7"
       style="fill:#e0f5fd;fill-opacity:1;fill-rule:nonzero;stroke:none;stroke-width:0.157025"
       d="m 117.70959,374.23016 c -2.99841,12.15561 -14.11859,19.83427 -26.209388,20.39224 -5.384251,0.24695 -11.170332,0.47495 -16.202969,-1.65411 -1.984698,-0.84064 -10.871357,-4.73011 -12.896804,-11.44545 -2.16721,4.17006 -6.724339,6.9859 -11.424264,7.05508 -4.698732,0.0722 -9.339125,-2.60489 -11.630056,-6.70794 -2.876367,5.56824 -8.115584,9.96251 -14.213699,11.41203 -6.097791,1.44785 -12.946001,-0.23233 -17.3985499,-4.64441 -3.7687742,-3.73345 -5.6586348,-9.276 -4.9564877,-14.53424 1.8085847,-13.5526 11.9678536,-14.32055 22.3361786,-9.65752 0.786049,-5.44651 5.309698,-10.14602 10.721917,-11.1363 5.411935,-0.99181 11.308611,1.79488 13.974951,6.60879 5.250783,-6.29757 10.756224,-12.79464 18.206152,-16.21808 7.449348,-3.42654 17.437939,-2.80775 22.508406,3.6357 5.408435,-5.41968 13.575623,-7.92953 21.094813,-6.48212 4.67838,-4.35467 12.02992,-5.5598 17.85343,-2.92394 2.06243,-10.97213 10.2702,-20.57489 20.78411,-24.3249 10.51425,-3.74847 22.94676,-1.506 31.48672,5.68516 9.94977,-4.99585 23.66461,0.32132 27.64673,10.71827 1.62454,-4.58758 8.76364,-7.52303 13.97344,-7.30114 -4.33851,-1.77028 -4.87256,-8.28582 -1.97471,-11.96973 2.89781,-3.68392 7.82946,-5.05702 12.48053,-5.64265 7.09494,-0.89505 15.43862,0.11668 19.42938,6.04995 2.38522,-2.58297 11.10172,-3.48633 12.02137,-3.4382 5.72044,0.29553 11.30632,1.7314 16.3672,4.44946 3.19954,-3.36981 8.27218,-4.40828 12.87953,-3.80349 4.60919,0.60603 8.89164,2.63122 13.08783,4.63107 4.294,-7.77658 13.3705,-12.63274 22.22074,-11.89328 8.85331,0.73889 16.99702,7.03457 19.94141,15.41492 2.7834,-3.33975 10.68012,-2.65005 11.79876,-2.40118 3.69925,0.82289 6.4409,3.04897 8.49394,6.28917 4.11937,6.50027 3.01538,16.04187 -2.94958,20.90125 -8.21674,6.69043 -20.37593,2.8375 -30.13449,-1.29118 -0.10802,5.0926 -5.7424,8.41067 -10.13441,8.15375 -1.27199,6.67346 -6.29415,12.15016 -12.15695,15.58771 -5.86123,3.43727 -13.00234,6.18297 -19.13969,6.79153 0.11872,9.37158 -6.56859,18.41782 -15.56088,21.05512 -8.99226,2.6373 -19.50409,-1.36779 -24.4654,-9.31745 -12.48376,6.97245 -29.41569,11.7175 -41.15384,1.194 -3.49473,-3.13299 -6.0775,-7.61428 -5.83608,-12.30212 -4.87696,1.35806 -10.39533,0.14599 -14.25389,-3.12969 -5.03717,6.33422 -12.80326,10.12685 -20.78537,11.47091 -13.04325,2.19666 -25.284,-2.09152 -37.39897,-6.28823 -4.78392,4.72752 -13.1569,5.18787 -18.43106,1.01124" /><path
       id="path112-3"
       style="fill:#add5f2;fill-opacity:1;fill-rule:nonzero;stroke:none;stroke-width:0.157025"
       d="m 221.38951,310.73755 c 2.89781,-3.68392 7.82946,-5.05702 12.48053,-5.64265 7.09494,-0.89505 15.43862,0.11668 19.42938,6.04995 2.38522,-2.58297 11.10172,-3.48633 12.02137,-3.4382 5.72044,0.29553 11.30632,1.7314 16.3672,4.44946 3.19954,-3.36981 8.27218,-4.40828 12.87953,-3.80349 4.60919,0.60603 8.89164,2.63122 13.08783,4.63107 4.294,-7.77658 13.3705,-12.63274 22.22074,-11.89328 8.85331,0.73889 16.99702,7.03457 19.94141,15.41492 2.7834,-3.33975 10.68012,-2.65005 11.79876,-2.40118 3.69925,0.82289 6.4409,3.04897 8.49394,6.28917 1.05067,1.6595 1.75832,3.51749 2.13531,5.44384 -5.09011,-9.873 -20.35747,-7.35381 -25.11971,-2.45941 -3.44364,-3.96851 -15.77163,-7.58851 -22.36658,-5.15924 -2.65429,0.9767 -7.01329,3.91357 -9.56186,4.67874 -1.43052,0.43103 -6.90725,-4.61668 -13.21183,-6.13674 -7.8037,-1.88136 -19.47562,2.37322 -12.61827,6.33146 4.87892,1.21848 9.32377,3.56473 12.33885,7.21575 -10.53363,-4.97394 -23.08943,-8.07037 -37.437,-8.0768 -14.20066,-0.007 -26.29961,5.55796 -14.88526,9.32362 2.13214,0.0733 4.2549,0.30976 6.34727,0.71645 5.55947,1.04782 11.00055,3.34796 15.09076,7.12661 -5.14939,-2.02251 -10.35015,-3.04009 -15.56938,-3.34647 -5.21673,-0.25893 -10.4259,0.15331 -15.50441,1.19448 -5.07431,1.04676 -10.01977,2.72122 -14.59164,5.1532 -4.53524,2.48264 -8.69326,5.73332 -11.72228,10.3796 v 0 0 0 0 c 1.86521,-12.48484 -11.13844,-14.7401 -16.8174,-8.284 0.63467,-8.33534 -5.39088,-18.29824 -14.21045,-19.99081 -8.82083,-1.69075 -18.37034,0.98228 -25.03112,7.0073 -4.42838,-3.72486 -11.04103,-4.62963 -16.30885,-2.22859 -4.10494,1.8716 -7.2042,5.68273 -8.4286,10.01 4.76113,-0.69732 9.62948,-0.66068 14.34513,0.2577 5.56043,1.04444 11.0015,3.34459 15.09048,7.12506 -5.14943,-2.0225 -10.34834,-3.03883 -15.56786,-3.34676 -5.21826,-0.25864 -10.42618,0.15177 -15.50597,1.19478 -5.07274,1.04646 -10.02006,2.71968 -14.59163,5.1532 -4.53429,2.48246 -8.69357,5.73338 -11.72105,10.38096 0.46344,-2.2388 1.40915,-4.3491 2.65934,-6.29921 -5.36974,-5.96879 -16.836995,-6.20026 -21.007274,0.69523 -4.494621,-5.24614 -12.421188,-7.21949 -18.850479,-4.69664 -6.42991,2.52296 -11.048144,11.32045 -6.98948,18.48231 -1.808015,-1.28912 -3.746804,-1.87796 -5.713171,-2.17405 -1.966352,-0.25937 -3.964333,-0.22204 -5.879491,0.172 -1.92364,0.35133 -3.759309,1.06554 -5.406102,2.12182 -1.645307,1.07357 -3.047903,2.55059 -4.242843,4.42642 0.127449,-2.21417 1.228585,-4.43029 2.937071,-6.03971 1.1978,-1.16065 2.665847,-1.99174 4.225489,-2.554 -2.663989,-3.81586 -7.169002,-4.42864 -12.092497,-3.60022 -5.37775,0.90397 -9.91656,5.5328 -10.715375,10.92738 -3.13096,-3.93604 -8.787674,-5.6494 -13.576124,-4.11142 -3.054695,0.97983 -5.6147181,3.24728 -7.1430363,6.06107 2.0491899,-12.91232 12.0246573,-13.60907 22.2206733,-9.02239 0.786049,-5.44651 5.309987,-10.14448 10.721917,-11.1363 5.411935,-0.99181 11.308611,1.79488 13.974951,6.60879 5.250783,-6.29757 10.756224,-12.79464 18.206152,-16.21808 7.449637,-3.425 17.437939,-2.80775 22.508406,3.6357 5.408435,-5.41968 13.575623,-7.92953 21.094813,-6.48212 4.67838,-4.35467 12.02992,-5.5598 17.85343,-2.92394 2.06243,-10.97213 10.2702,-20.57489 20.78411,-24.3249 10.51425,-3.74847 22.94676,-1.506 31.48672,5.68516 9.94977,-4.99585 23.66461,0.32132 27.64673,10.71827 1.62454,-4.58758 8.76364,-7.52303 13.97344,-7.30114 -4.33851,-1.77028 -4.87256,-8.28582 -1.97471,-11.96973" /><path
       id="path114-6"
       style="fill:#ffffff;fill-opacity:1;fill-rule:nonzero;stroke:none;stroke-width:0.157025"
       d="m 371.12178,336.02149 c -0.90297,2.02721 -2.21924,3.8523 -3.96116,5.27308 -8.21674,6.69043 -20.37593,2.8375 -30.13449,-1.29118 -0.10802,5.0926 -5.7424,8.41067 -10.13441,8.15375 -1.27199,6.67346 -6.29415,12.15016 -12.15695,15.58771 -5.86123,3.43727 -13.00234,6.18297 -19.13969,6.79153 0.11872,9.37158 -6.56859,18.41782 -15.56088,21.05512 -8.99226,2.6373 -19.50409,-1.36779 -24.4654,-9.31745 -12.48376,6.97245 -29.41569,11.7175 -41.15384,1.194 -3.49473,-3.13299 -6.0775,-7.61428 -5.83608,-12.30212 -4.87696,1.35806 -10.39533,0.14599 -14.25389,-3.12969 -5.03717,6.33422 -12.80326,10.12685 -20.78537,11.47091 -13.04325,2.19666 -25.284,-2.09152 -37.39897,-6.28823 -4.78392,4.72752 -13.1569,5.18787 -18.43106,1.01124 -2.99841,12.15561 -14.11859,19.83427 -26.209388,20.39224 -5.384251,0.24695 -11.170332,0.47495 -16.202969,-1.65411 -1.984698,-0.84064 -10.871357,-4.73011 -12.896804,-11.44545 -2.16721,4.17006 -6.724339,6.9859 -11.424264,7.05508 -4.698732,0.0722 -9.339125,-2.60489 -11.630056,-6.70794 -2.876367,5.56824 -8.115584,9.96251 -14.213699,11.41203 -6.097791,1.44785 -12.946001,-0.23233 -17.3985499,-4.64441 -1.5678248,-1.553 -2.7880364,-3.42838 -3.6542223,-5.45635 5.1827592,5.54054 12.9383932,6.00586 18.7719652,4.85993 7.383135,-1.44911 13.191731,-6.33189 15.852772,-12.02273 3.817332,6.8732 20.894979,6.00215 23.580342,-2.75583 0.157571,1.41628 0.04455,2.72193 -0.09258,4.47782 3.256766,5.07711 10.939605,7.93487 17.63116,6.9445 7.224075,-1.06942 13.823889,-6.53823 14.830118,-13.77058 2.632274,4.76599 8.688355,7.6011 13.921895,6.09633 8.41059,-2.41646 2.16083,-5.99171 0.39304,-9.50104 6.25739,4.61865 24.63519,3.04866 30.95225,-4.80191 13.28711,10.69014 43.56912,6.57938 53.754,-8.87522 0.82934,4.19482 3.1437,7.23587 7.13999,8.75714 3.32496,1.26367 8.27892,1.55267 11.67316,-0.30077 4.70394,3.14921 9.87713,4.73591 15.13404,5.49054 5.27021,0.69783 10.62201,0.58637 15.8972,-0.13859 5.27615,-0.72833 10.47627,-2.06704 15.48744,-4.00465 4.99731,-1.98612 9.75191,-4.60251 14.16241,-8.12577 -2.94658,4.85609 -7.54173,8.69832 -12.59206,11.45002 -2.60381,1.43373 -5.35361,2.59127 -8.18991,3.49183 3.21284,2.6602 7.57071,4.585 15.93537,4.22525 8.37143,-0.35781 20.04827,-6.13742 24.56545,-15.22112 11.49081,4.84729 28.17422,-7.71133 24.68885,-18.66307 -0.53979,-0.13529 -1.08313,-0.25554 -1.6149,-0.41629 -3.38874,-1.0584 -6.59791,-2.59938 -9.36012,-4.80723 3.5114,0.39158 6.80653,0.91636 10.08102,1.18619 3.26341,0.29588 6.47089,0.40414 9.6539,0.24537 3.18175,-0.15692 6.33903,-0.58083 9.50772,-1.28487 3.18314,-0.67801 6.33422,-1.68068 9.71417,-2.71508 -1.3824,1.59145 -3.01089,2.95263 -4.77535,4.12523 7.80974,4.24945 23.87578,7.07469 30.3388,-1.10516" /><path
       id="path42-1"
       style="fill:#e0f5fd;fill-opacity:1;fill-rule:nonzero;stroke:none;stroke-width:0.0999997"
       d="m 91.241387,230.20133 c -2.165001,-0.647 -4.184001,-2.194 -5.650001,-3.781 -0.028,1.279 -0.91,2.384 -2.12,2.79 -1.207,0.404 -2.545,0.163 -3.722,-0.319 -0.883,-0.362 -3.451,-1.857 -3.388,-4.795 -1.27,-0.792 -2.053,-2.57 -2.187,-3.06 -0.453,-1.663 0.218,-3.639 1.618,-4.649 1.931,-1.392 4.806,-1.035 6.592,0.539 0.882,-1.471 2.344,-3.539 2.657,-3.856 1.159001,-1.17 2.494001,-2.211 4.021001,-2.828 3.954,-1.599 6.268,-1.192 9.829002,0.057 2.608001,0.914 6.563001,3.531 7.232001,6.352 0.719,-1.1 1.958,-1.844 3.267,-1.962 1.557,-0.141 4.251,0.766 5.159,1.853 1.301,-1.491 3.324,-1.506 5.147,-1.122 1.804,0.381 3.651,1.019 4.879,2.394 1.906,2.137 2.506,4.956 1.843,7.688 -0.347,1.433 -1.062,2.807 -2.187,3.761 -1.219,1.033 -3.276,1.691 -4.852,1.864 -0.372,0.041 -2.125,-0.039 -3.351,-0.472 -0.328,2.798 -2.821,5.049 -5.587,5.588 -2.766,0.538 -5.671,-0.419 -7.951,-2.076 -0.691,-0.503 -3.349001,-3.055 -4.035001,-5.829 -1.425,1.6 -3.676003,2.361 -5.807002,2.146 -0.473001,-0.047 -0.943,-0.144 -1.407,-0.283" /><path
       id="path54-1"
       style="fill:#e0f5fd;fill-opacity:1;fill-rule:nonzero;stroke:none;stroke-width:0.219533"
       d="m 14.2253,320.62804 c -3.8282,0.64887 -6.38651,-3.37496 -6.90671,-4.97738 -2.00725,-6.20712 3.24406,-12.42949 8.92826,-14.51245 6.55032,-2.39953 15.87997,-0.65328 21.21569,3.74605 1.61384,-4.09843 6.99073,-7.32907 10.65255,-8.08382 5.11732,-1.05582 10.22779,-0.0961 15.12093,1.17947 1.70413,-13.39407 11.84263,-25.3372 24.78305,-29.19161 12.94042,-3.85439 30.69808,1.50798 36.71702,10.87223 1.86268,-5.37613 8.51347,-12.42098 15.85524,-14.49574 15.77309,-4.45653 30.56067,-1.03384 44.83193,5.91463 1.91076,-4.58897 6.61728,-10.73726 10.55439,-13.94978 9.27359,-7.56525 17.10576,-8.55088 25.1841,-8.75492 11.47596,-0.29121 22.61798,4.47825 31.91309,11.21484 4.40047,-6.91581 14.15171,-11.4403 19.61238,-12.94428 7.92107,-2.17803 18.68231,-0.80859 22.62528,2.2838 1.33273,-2.83673 4.80754,-6.08994 7.35023,-7.51423 12.34055,-6.91352 25.05812,-6.25506 34.71613,-0.96639 6.58808,-2.34433 17.68506,0.15822 21.46173,4.20989 5.77023,6.191 6.88325,15.87997 2.73875,23.2532 6.23582,8.86489 7.50765,20.59244 4.52449,31.01233 -4.66575,16.28855 -18.75044,25.22497 -29.46932,25.62173 -1.50246,9.47618 -18.46679,21.77871 -31.58006,18.93602 3.08251,8.13849 0.59527,17.67047 -4.803,24.49696 -5.39826,6.82651 -13.32332,11.24981 -21.52342,14.16771 -5.21867,1.85673 -12.12366,1.82673 -17.58617,0.81805 -2.16728,-0.40205 -4.2102,-1.31874 -6.13652,-2.39273 -7.88022,-4.40016 -12.84429,-11.04132 -16.37074,-19.16147 -1.67607,-3.86248 -4.45164,-10.70775 -2.11811,-19.68124 -11.48172,9.52764 -26.99614,14.02482 -41.7959,12.11504 -14.79759,-1.91022 -28.66055,-10.20146 -37.34539,-22.33305 -2.09137,5.40788 -8.32582,8.78334 -12.27057,9.74839 -5.97636,1.46487 -12.82721,1.84489 -18.71391,-0.2235 -6.09576,-2.14121 -10.95994,-7.49524 -12.51066,-13.77018 -2.89481,9.82509 -12.07994,17.48698 -22.65082,18.48555 -6.34417,0.59991 -16.6501,-3.42619 -22.35664,-10.71062 -2.34848,1.77305 -10.46849,3.04605 -15.45505,2.86083 -5.13292,-0.18988 -14.18095,-2.32295 -18.5481,-7.75505 -0.79086,1.26396 -2.73468,3.05777 -4.68348,3.86346 -3.55587,1.47229 -7.9617,0.77178 -11.26801,-1.90707 -2.76829,-2.24361 -5.42012,-7.8736 -4.69266,-11.47467" /><path
       id="path44-2"
       style="fill:#add5f2;fill-opacity:1;fill-rule:nonzero;stroke:none;stroke-width:0.0999997"
       d="m 74.067386,219.51833 c 0.123,-1.224 0.737,-2.419 1.725,-3.131 1.931,-1.392 4.806,-1.035 6.592,0.539 0.882,-1.471 2.344,-3.539 2.657,-3.856 1.159001,-1.17 2.494001,-2.211 4.021001,-2.828 3.954,-1.599 6.268,-1.192 9.829002,0.057 2.608001,0.914 6.563001,3.531 7.232001,6.352 0.719,-1.1 1.958,-1.844 3.267,-1.962 1.557,-0.14 4.251,0.766 5.159,1.853 1.301,-1.491 3.324,-1.506 5.147,-1.122 1.804,0.381 3.651,1.019 4.879,2.394 1.093,1.225 1.742,2.678 1.984,4.206 -2.594,-4.508 -5.977,-3.339 -7.831,-1.253 0.416,-0.063 0.843,-0.07 1.264,-0.02 1.707,0.219 3.182,1.382 3.845,2.844 -1.173,-1.083 -2.495,-1.882 -3.944,-2.061 -1.445,-0.194 -2.918,0.28 -4.262,1.142 0.462,-0.656 1.113,-1.207 1.879,-1.544 0.249,-0.115 0.513,-0.197 0.782,-0.265 -0.729,-1.546 -2.931,-2.833 -5.421,-3.167 -1.831,-0.245 -3.761,0.342 -5.172,1.534 1.286,0.931 2.28,2.183 2.912,3.564 -1.134,-1.086 -2.305,-2.044 -3.615,-2.695 -1.302,-0.654 -2.7,-1.033 -4.128,-1.105 -1.426,-0.077 -2.846,0.142 -4.202001,0.656 -1.357,0.518 -2.634002,1.305 -3.868003,2.285 0.725,-1.402 1.914,-2.594 3.355003,-3.385 1.441,-0.796 3.149001,-1.163 4.804001,-1.037 0.965,0.065 1.916,0.298 2.813,0.656 -2.332,-2.633 -6.316001,-5.361 -12.097003,-4.745 -2.802,0.299 -5.738,1.775 -6.958001,4.1 -2.159,-1.036 -3.857,-0.093 -4.328,2.856 0.032,0.01 0.064,0.016 0.096,0.027 0.669,0.226 1.268,0.643 1.72,1.162 0.446,0.527 0.746,1.143 0.923,1.777 -0.385,-0.537 -0.8,-1.027 -1.277,-1.418 -0.477,-0.389 -1.008,-0.683 -1.585,-0.836 -0.568,-0.173 -1.187,-0.206 -1.788,-0.207 -0.601,0.003 -1.218,0.102 -1.897,0.18 0.507,-0.445 1.14,-0.771 1.84,-0.865 0.545,-0.077 1.094,-0.039 1.631,0.087 -1.646,-3.664 -6.714,-4.072 -7.983,-0.769" /><path
       id="path56-5"
       style="fill:#add5f2;fill-opacity:1;fill-rule:nonzero;stroke:none;stroke-width:0.219533"
       d="m 37.44532,304.88766 c 1.61597,-4.09884 6.99288,-7.32949 10.6547,-8.08425 5.11731,-1.05581 10.22779,-0.0961 15.12092,1.17948 1.70412,-13.39407 11.84263,-25.3372 24.78305,-29.19161 12.94043,-3.85439 30.70023,1.50755 36.71703,10.87223 1.86483,-5.37655 8.51348,-12.42098 15.85308,-14.49532 15.7774,-4.45738 30.56283,-1.03427 44.83408,5.91421 1.91077,-4.58898 6.61513,-10.73684 10.5544,-13.94978 9.27573,-7.56567 17.10792,-8.55131 25.18195,-8.75449 11.47809,-0.29164 22.62012,4.47782 31.91522,11.21441 4.40047,-6.91581 14.14957,-11.43988 19.61023,-12.94385 7.92539,-2.17888 18.68448,-0.80902 22.6253,2.2838 1.33488,-2.83717 4.80753,-6.08994 7.35453,-7.51509 12.34054,-6.91351 25.05811,-6.25506 34.71181,-0.96553 6.5924,-2.34519 17.68506,0.15822 21.46389,4.20946 1.84626,1.98269 3.16033,4.34128 4.03146,6.84779 -11.30983,-12.69831 -41.01464,-0.0942 -48.1086,16.36302 0.0785,-0.067 0.15919,-0.13435 0.2377,-0.20135 1.25742,-0.8392 2.50463,-1.71888 3.83112,-2.4464 1.36891,-0.63744 2.68433,-1.42094 4.10588,-1.9278 5.66148,-2.12995 11.75843,-2.87122 17.63437,-2.27318 5.87595,0.59805 11.52016,2.33392 16.67421,4.89614 -5.72386,-0.82502 -11.28267,-1.52824 -16.81012,-1.47235 -1.37626,0.10182 -2.74515,0.18429 -4.10835,0.22759 -1.35698,0.14275 -2.69869,0.38545 -4.04328,0.56829 -1.33818,0.20392 -2.63115,0.59136 -3.94754,0.87161 -1.31902,0.28963 -2.53838,0.86846 -3.81675,1.27319 -5.00859,1.86669 -9.5605,4.8896 -13.11893,8.92018 -3.56792,4.02796 -6.14649,8.99726 -7.55289,14.59877 v 0 0 0 0 c -0.97243,-7.40289 -0.59164,-27.82396 -26.71053,-21.96579 -8.282,1.85772 -18.90464,8.57509 -21.55917,14.90429 3.18436,0.1586 6.35388,0.58195 9.44817,1.32674 7.42822,1.80635 14.46955,5.38091 19.67218,10.71508 -7.00938,-2.50673 -13.80958,-4.06792 -20.66704,-4.53697 -6.83541,-0.50472 -13.65162,-0.0174 -20.33454,1.26927 -6.67389,1.2983 -13.2295,3.38786 -19.40706,6.37165 -6.1686,3.01783 -11.97511,6.76972 -16.697,12.50035 0.55512,-1.70967 0.96057,-3.67845 1.97221,-5.26349 0.43726,-0.84499 0.92871,-1.66487 1.4146,-2.50158 0.54475,-0.77671 1.13935,-1.51628 1.7211,-2.28688 1.04415,-1.31846 2.3581,-2.39258 3.41902,-3.69421 21.88943,-26.83644 -26.23872,-23.77984 -40.32439,-12.23174 -12.77491,-4.47149 -39.82082,-0.0548 -38.50396,16.14834 3.62863,-0.005 7.2655,0.69949 10.5893,2.16426 4.37719,1.89219 8.18115,5.32308 9.92821,9.57881 -6.55381,-6.3853 -15.24146,-8.15543 -23.45209,-7.15993 -8.23183,1.02429 -16.16724,4.9081 -21.28306,12.46202 0.23749,-1.21056 0.62819,-2.3932 1.13461,-3.53381 3.10378,-10.08121 3.13042,-15.37209 -4.37548,-22.78215 -11.69956,-11.55613 -38.30151,-5.7077 -44.69034,13.53722 -6.43876,-5.68969 -23.13006,-2.39219 -27.75919,6.74168 -6.37642,-10.96974 -25.51334,-12.56421 -30.4855,0.19102 0.023,-5.19618 4.51912,-9.95131 9.34578,-11.71941 6.55248,-2.39995 15.87997,-0.65328 21.2157,3.74606" /><path
       id="path58-9"
       style="fill:#ffffff;fill-opacity:1;fill-rule:nonzero;stroke:none;stroke-width:0.219533"
       d="m 366.10383,298.92388 c -4.66575,16.28855 -18.75044,25.22497 -29.46932,25.62173 -1.50246,9.47618 -18.46679,21.77871 -31.58006,18.93602 3.08251,8.13849 0.59527,17.67047 -4.803,24.49696 -5.39826,6.82651 -13.32332,11.24981 -21.52342,14.16771 -5.21867,1.85673 -12.12366,1.82673 -17.58617,0.81805 -2.16728,-0.40205 -4.2102,-1.31874 -6.13652,-2.39273 -7.88022,-4.40016 -12.84429,-11.04132 -16.37074,-19.16147 -1.65124,-3.80473 -4.35695,-10.51162 -2.20642,-19.29008 -0.12311,-0.0115 -0.24405,-0.0233 -0.36675,-0.0327 -11.43765,9.27502 -26.73391,13.64182 -41.34083,11.75662 -14.79759,-1.91022 -28.66056,-10.20147 -37.34539,-22.33305 -2.09138,5.40787 -8.32583,8.78333 -12.27057,9.74839 -5.97636,1.46486 -12.82721,1.84488 -18.71391,-0.2235 -6.09577,-2.14121 -10.95994,-7.49525 -12.51067,-13.77019 -2.89481,9.82509 -12.07993,17.48699 -22.65081,18.48555 -6.34418,0.59991 -16.65011,-3.42619 -22.35664,-10.71061 -2.35063,1.77348 -10.4685,3.04604 -15.45506,2.86082 -5.13292,-0.18988 -14.18094,-2.32294 -18.5481,-7.75504 -0.79085,1.26395 -2.73468,3.05776 -4.68347,3.86346 -3.55587,1.47228 -7.9617,0.77177 -11.26802,-1.90708 -2.76829,-2.24361 -5.42012,-7.87359 -4.69266,-11.47467 -2.83883,0.48031 -4.97459,-1.60858 -6.10406,-3.37258 2.34811,2.04241 5.78184,2.53442 9.21091,1.51907 0.2293,3.56199 3.35114,7.05156 9.45695,8.22407 4.35426,0.83601 9.20226,-0.29183 10.37823,-3.66151 8.52479,8.96542 25.21664,7.8228 32.44148,-2.21772 3.13552,6.28856 10.53809,9.30167 16.03029,8.3084 6.30496,-1.13819 10.27051,-4.17282 11.87644,-9.12675 3.63491,4.1043 10.14443,4.96432 15.02694,3.25232 4.48649,7.5993 18.90108,10.71971 25.98443,4.09738 6.58354,7.83844 25.25637,1.35226 31.07062,-7.34441 9.62856,20.94099 36.62386,31.10669 58.66975,20.51242 -4.57794,-1.11854 -9.02321,-2.80035 -12.93413,-5.42466 5.28925,0.35815 10.2896,0.7152 15.27697,0.73466 4.97479,0.0577 9.88818,-0.13866 14.78149,-0.58396 4.89633,-0.45263 9.7631,-1.14556 14.64598,-2.09678 4.90002,-0.92105 9.75346,-2.16856 14.89676,-3.46662 -3.81,3.71998 -8.49117,6.4171 -13.41744,8.42866 -3.05457,1.22331 -6.23538,2.12472 -9.46986,2.77714 6.51151,6.78301 15.84369,11.48709 28.53339,8.98014 11.77437,-2.32612 15.20226,-11.08393 15.61609,-14.96991 2.95284,2.67933 9.86863,4.15727 14.96151,2.51336 11.49174,-3.71141 15.86854,-11.91375 13.48498,-18.84765 -1.07659,-0.0804 -2.15008,-0.20181 -3.20837,-0.38212 -4.46504,-0.78503 -8.77477,-2.43767 -12.32549,-5.17567 4.47036,0.16638 8.59686,0.27982 12.64629,0.0258 4.0399,-0.23419 7.96517,-0.78812 11.81589,-1.67417 3.85028,-0.88822 7.62425,-2.09477 11.35983,-3.64283 3.75794,-1.53683 7.41815,-3.43252 11.36388,-5.548 5.47546,-5.23502 10.71112,-17.25683 7.6361,-30.60187 4.14789,8.23012 4.73258,18.12194 2.17268,27.05959" /><path
       id="path46-9"
       style="fill:#ffffff;fill-opacity:1;fill-rule:nonzero;stroke:none;stroke-width:0.0999997"
       d="m 114.46639,226.87833 c 2.233,2.474 8.415,3.637 11.541,-0.146 -0.401,0.967 -0.981,1.856 -1.776,2.531 -1.219,1.033 -3.276,1.691 -4.852,1.864 -0.372,0.041 -2.125,-0.039 -3.351,-0.472 -0.328,2.798 -2.821,5.049 -5.587,5.588 -2.766,0.538 -5.671,-0.419 -7.951,-2.076 -0.691,-0.503 -3.349001,-3.055 -4.035001,-5.829 -1.425,1.6 -3.676003,2.361 -5.807002,2.146 -0.473001,-0.047 -0.943,-0.144 -1.407,-0.283 -2.165001,-0.647 -4.184001,-2.194 -5.650001,-3.781 -0.028,1.279 -0.91,2.384 -2.12,2.79 -1.207,0.404 -2.545,0.163 -3.722,-0.319 -0.883,-0.362 -3.451,-1.857 -3.388,-4.795 -1.27,-0.792 -2.053,-2.57 -2.187,-3.06 -0.014,-0.052 -0.017,-0.106 -0.029,-0.159 0.86,1.923 2.139,2.213 3.653,1.594 -0.995,1.59 0.396,3.723 2.139,4.417 3.204,1.276 5.587,-0.851 5.361,-2.714 1.125,0.973 2.343001,-0.187 2.313001,-1.303 0.71,2.082 2.648,3.496 4.754,4.13 1.756,0.529 3.418999,0.27 4.563002,-0.145 -0.636003,-0.482 -1.205002,-1.045 -1.628002,-1.709 2.169002,1.194 4.342002,1.832 6.627003,2.133 1.138,0.152 2.289,0.212 3.459,0.217 1.172,-0.004 2.353,-0.081 3.6,-0.151 -1.057,0.666 -2.253,1.086 -3.486,1.316 -0.46,0.089 -0.927,0.141 -1.396,0.172 3.329,3.064 9.078,2.298 10.362,-1.956" /><path
       id="path54"
       style="fill:#e0f5fd;fill-opacity:1;fill-rule:nonzero;stroke:none;stroke-width:0.210207"
       d="m 342.79817,269.65956 c 3.73883,-0.10024 5.40525,-4.32948 5.59768,-5.92167 0.73804,-6.16614 -5.38622,-11.0075 -11.14674,-11.9039 -6.63815,-1.0322 -15.1288,2.31935 -19.3498,7.41146 -2.29025,-3.52915 -7.97466,-5.55389 -11.57605,-5.58314 -5.03306,-0.0417 -9.68335,1.79698 -14.06931,3.89065 -4.11104,-12.19225 -15.92184,-21.47382 -28.87033,-22.68572 -12.94851,-1.2119 -28.72863,7.07087 -32.66839,16.92497 -2.76395,-4.67632 -10.3643,-10.02752 -17.68973,-10.61051 -15.73783,-1.25161 -29.07335,4.67215 -41.26264,13.79281 -2.66248,-3.93243 -8.25805,-8.80516 -12.57847,-11.07854 -10.17608,-5.35331 -17.76159,-4.82884 -25.43387,-3.52916 -10.89932,1.84502 -20.53827,8.35382 -28.06459,16.35872 -5.44968,-5.64585 -15.50944,-8.07175 -20.95065,-8.46877 -7.89219,-0.57252 -17.806045,2.69128 -20.954895,6.30614 -1.78906,-2.40294 -5.68017,-4.79961 -8.34896,-5.66047 -12.95275,-4.17901 -24.84811,-1.21819 -32.98771,5.50164 -6.66352,-0.9737 -16.68313,3.41008 -19.49572,7.88997 -4.29712,6.84523 -3.54007,16.09754 1.75311,22.21767 -4.23793,9.42787 -3.25033,20.61295 1.51415,29.79215 7.45019,14.34862 22.42885,20.09476 32.63245,18.48791 3.189,8.57115 21.51739,16.92917 33.37892,11.85585 -1.3936,8.16787 2.736465,16.60946 9.112395,21.98785 6.37592,5.37837 14.69105,8.04665 22.98502,9.25858 5.27837,0.77103 11.79808,-0.53073 16.77194,-2.48025 1.97304,-0.77521 3.73249,-2.00801 5.35239,-3.36618 6.62544,-5.56226 10.07669,-12.6791 11.89325,-20.91174 0.86281,-3.91574 2.20779,-10.81945 -1.67277,-18.76791 12.6292,6.77835 28.13016,8.11561 41.75964,3.60228 13.62733,-4.51333 25.18013,-14.81247 31.12252,-27.74232 2.98599,4.66378 9.50783,6.66551 13.41586,6.83894 5.92124,0.26537 12.46633,-0.64357 17.64321,-3.66079 5.36084,-3.12381 8.958,-9.0204 9.25194,-15.16563 4.56996,8.64011 14.68048,14.09997 24.85658,13.08239 6.10733,-0.61016 15.09493,-6.2706 19.12774,-14.12504 2.55037,1.22235 10.46157,0.91311 15.13937,-0.17977 4.81525,-1.12415 12.96755,-4.78496 16.08042,-10.66272 0.98335,1.03428 3.15519,2.35068 5.14727,2.74351 3.63522,0.71879 7.66801,-0.74805 10.29239,-3.85931 2.19721,-2.60563 3.65213,-8.35175 2.29238,-11.58002" /><path
       id="path56"
       style="fill:#add5f2;fill-opacity:1;fill-rule:nonzero;stroke:none;stroke-width:0.210207"
       d="m 317.91623,259.24545 c -2.29237,-3.52915 -7.97678,-5.55389 -11.57817,-5.58314 -5.03305,-0.0417 -9.68335,1.79698 -14.06931,3.89065 -4.11104,-12.19225 -15.92183,-21.47382 -28.87033,-22.68572 -12.94851,-1.2119 -28.73076,7.07087 -32.66837,16.92497 -2.76606,-4.67632 -10.36432,-10.02752 -17.68764,-10.61051 -15.74205,-1.25161 -29.07544,4.67215 -41.26476,13.79281 -2.66244,-3.93243 -8.25591,-8.80516 -12.57842,-11.07854 -10.17824,-5.35331 -17.76375,-4.82884 -25.43176,-3.52916 -10.90144,1.84502 -20.54041,8.35382 -28.06674,16.35872 -5.44965,-5.64585 -15.50733,-8.07175 -20.94853,-8.46877 -7.89643,-0.57252 -17.808185,2.69128 -20.954885,6.30614 -1.79118,-2.40294 -5.68018,-4.79961 -8.3532,-5.66047 -12.95274,-4.17901 -24.8481,-1.21819 -32.9835,5.50164 -6.66774,-0.9737 -16.68311,3.41008 -19.49782,7.88997 -1.37458,2.1919 -2.17605,4.63661 -2.53133,7.13774 8.31725,-13.94326 38.74192,-7.65386 48.5183,6.40433 -0.0866,-0.0481 -0.17557,-0.096 -0.26222,-0.14416 -1.34497,-0.55165 -2.68783,-1.14295 -4.07721,-1.57757 -1.41265,-0.34267 -2.80203,-0.83162 -4.24004,-1.04268 -5.74784,-0.94444 -11.64793,-0.51193 -17.08914,1.13042 -5.44122,1.64235 -10.45102,4.30438 -14.84331,7.64757 5.25511,-1.8262 10.37698,-3.50825 15.61096,-4.47571 1.31958,-0.15879 2.62861,-0.33431 3.92493,-0.54535 1.30902,-0.11702 2.62228,-0.13784 3.92707,-0.21521 1.30267,-0.0563 2.59689,0.0669 3.89321,0.0858 1.30057,0.0271 2.56093,0.34268 3.84459,0.48478 5.08172,0.81908 9.9477,2.80201 14.06296,5.90911 4.12373,3.10289 7.48827,7.26728 9.86312,12.2382 v 0 0 0 0 c -0.46314,-7.09174 -4.6355,-26.08951 21.140995,-25.4376 8.17344,0.20686 19.46612,4.51961 23.15629,9.93977 -2.97965,0.7355 -5.89586,1.71547 -8.68096,2.9817 -6.68255,3.05696 -12.66936,7.69358 -16.59008,13.63403 6.15598,-3.63365 12.29083,-6.34584 18.68366,-8.04876 6.36534,-1.73222 12.89776,-2.53457 19.45342,-2.56591 6.54933,-0.018 13.1346,0.72296 19.52955,2.36949 6.39284,1.67995 12.58054,4.11214 18.11269,8.59204 -0.84379,-1.49398 -1.59451,-3.25754 -2.84645,-4.55094 -0.57099,-0.70835 -1.18846,-1.38325 -1.80384,-2.07488 -0.65981,-0.62476 -1.35978,-1.20563 -2.05343,-1.81786 -1.23287,-1.03849 -2.67511,-1.79907 -3.92072,-2.81875 -25.69609,-21.02038 20.35644,-27.04444 35.82359,-18.85985 11.2377,-6.53178 37.62109,-7.39686 39.40171,7.97563 -3.43013,0.66446 -6.73544,1.9934 -9.60302,3.97422 -3.78325,2.5743 -6.73753,6.47956 -7.59401,10.77558 5.00136,-7.17116 12.88083,-10.42662 20.82589,-11.01169 7.97042,-0.56207 16.19461,1.60057 22.43944,7.71028 -0.45047,-1.08655 -1.04045,-2.11875 -1.73198,-3.09038 -4.81524,-8.84068 -5.8282,-13.77608 -0.11841,-22.07978 8.8988,-12.94863 35.12993,-12.39494 44.76042,4.39632 5.02248,-6.50044 21.41167,-6.50044 27.49152,1.1743 3.9778,-11.41912 21.76483,-16.43813 28.84494,-5.44525 -0.9918,-4.84763 -6.12849,-8.4583 -11.01986,-9.21888 -6.64026,-1.0322 -15.1288,2.31935 -19.3498,7.41146" /><path
       id="path58"
       style="fill:#ffffff;fill-opacity:1;fill-rule:nonzero;stroke:none;stroke-width:0.210207"
       d="m 6.215255,314.30386 c 7.45019,14.34862 22.42885,20.09476 32.63245,18.48791 3.189,8.57115 21.51739,16.92917 33.37892,11.85585 -1.3936,8.16787 2.736465,16.60946 9.112395,21.98785 6.37592,5.37837 14.69105,8.04665 22.98502,9.25858 5.27837,0.77103 11.79808,-0.53073 16.77194,-2.48025 1.97304,-0.77521 3.73249,-2.00801 5.35239,-3.36618 6.62544,-5.56226 10.07669,-12.6791 11.89325,-20.91174 0.85013,-3.85724 2.15492,-10.61887 -1.51626,-18.41897 0.11425,-0.0333 0.22628,-0.0669 0.34046,-0.0982 12.54034,6.55059 27.81085,7.80637 41.26267,3.35155 13.62733,-4.5133 25.18013,-14.81243 31.12252,-27.7423 2.98599,4.66379 9.50783,6.66552 13.41586,6.83895 5.92124,0.26537 12.46633,-0.64358 17.64321,-3.6608 5.36084,-3.12381 8.958,-9.0204 9.25194,-15.16563 4.56996,8.64011 14.68048,14.09997 24.85658,13.0824 6.10733,-0.61015 15.09493,-6.27061 19.12774,-14.12504 2.55247,1.22234 10.46157,0.91311 15.13937,-0.17978 4.81525,-1.12415 12.96755,-4.78495 16.08042,-10.66272 0.98335,1.03429 3.15519,2.35068 5.14727,2.74351 3.63522,0.71879 7.66801,-0.74804 10.29239,-3.85931 2.19721,-2.60562 3.65213,-8.35175 2.29238,-11.58002 2.7724,-0.0752 4.40075,-2.41963 5.13879,-4.27513 -1.83771,2.34024 -4.99076,3.43307 -8.42087,3.11754 0.44834,3.36829 -1.85038,7.20251 -7.40156,9.42365 -3.95877,1.58384 -8.75075,1.42506 -10.49118,-1.50442 -6.38225,9.94394 -22.36964,11.95612 -31.07178,3.91363 -1.78905,6.4503 -8.22207,10.6293 -13.59772,10.71496 -6.17077,0.10023 -10.48483,-2.00174 -12.92735,-6.33118 -2.66879,4.50288 -8.65982,6.5067 -13.5935,5.8088 -2.82104,7.92341 -15.86048,13.49611 -23.79073,8.6192 -4.75813,8.53353 -23.61523,5.92166 -30.7334,-1.12624 -5.18956,21.32966 -28.80266,35.80155 -51.6143,29.97603 4.1174,-1.88893 8.00429,-4.27932 11.21021,-7.45119 -4.93155,1.31014 -9.5903,2.56592 -14.29983,3.50411 -4.69045,0.97162 -9.37036,1.69458 -14.07776,2.18145 -4.71162,0.48058 -9.44015,0.73131 -14.23213,0.74384 -4.80258,0.0439 -9.62204,-0.22566 -14.72489,-0.48893 4.29501,2.77068 9.22233,4.42556 14.25329,5.39509 3.11501,0.57881 6.2892,0.83371 9.46767,0.84624 -4.88716,7.53475 -12.82797,13.64866 -25.28798,13.64866 -11.56126,0 -16.43572,-7.54521 -17.55228,-11.09736 -2.29024,3.04649 -8.549845,5.70226 -13.669635,5.10673 -11.55277,-1.34563 -17.22026,-8.19711 -16.26228,-15.11127 1.00238,-0.27372 1.99418,-0.58506 2.96062,-0.94864 4.07297,-1.55667 7.8372,-3.89484 10.68151,-7.10639 -4.19351,0.97996 -8.07194,1.84711 -11.94611,2.35696 -3.86151,0.52654 -7.67437,0.7334 -11.47878,0.61639 -3.80441,-0.11903 -7.59613,-0.54954 -11.41533,-1.30593 -3.83824,-0.74178 -7.65109,-1.83669 -11.77482,-3.0841 -6.15175,-3.87813 -13.34395,-14.13759 -12.92948,-27.16564 -2.3833,8.44994 -1.08908,17.79421 2.99869,25.66745" /><path
       id="path110"
       style="fill:#e0f5fd;fill-opacity:1;fill-rule:nonzero;stroke:none;stroke-width:0.168081"
       d="m 113.0787,266.10791 c -5.20312,13.01373 -17.587944,19.29375 -29.614028,17.37674 -5.355146,-0.85539 -11.103065,-1.81658 -15.672404,-5.26503 -1.801804,-1.3611 -9.846357,-7.59627 -10.602714,-15.56016 -2.907763,4.22493 -7.922001,6.42705 -12.569466,5.51607 -4.64685,-0.90738 -8.728125,-4.88844 -10.229041,-9.97593 -3.865427,5.6452 -9.843977,9.47561 -16.125323,9.81992 -6.280715,0.34251 -12.7233834,-2.98399 -16.2987919,-8.87308 -3.0265352,-4.98347 -3.8659178,-11.60243 -2.20180309,-17.35701 4.28796849,-14.83211 14.44814999,-13.5571 23.81083699,-6.14194 1.781655,-5.94826 7.110976,-10.27184 12.631064,-10.24493 5.52012,0.0251 10.81998,4.39351 12.559713,10.3579 6.341669,-5.96439 12.971355,-12.09915 20.950527,-14.37481 7.979175,-2.27924 17.714763,0.51645 21.524117,8.81568 6.334926,-4.94582 14.852563,-6.04509 21.999903,-2.83873 5.4182,-3.90394 12.89039,-3.71026 18.14597,0.47343 4.06143,-11.8822 13.92985,-20.9346 24.99084,-22.93229 11.06101,-1.99591 22.90658,3.13642 29.99908,13.00476 10.73491,-3.51479 23.2768,5.33856 25.28232,17.84658 2.44976,-4.80774 10.03223,-6.601 15.12873,-5.25606 -3.95115,-2.89971 -3.27374,-10.32562 0.26467,-13.85119 3.53837,-3.52555 8.65532,-4.02947 13.35006,-3.70846 7.16187,0.48776 15.20278,3.37851 18.04169,10.87794 2.82944,-2.39758 11.59192,-1.57806 12.4899,-1.3306 5.58642,1.53503 10.82943,4.32177 15.31778,8.43732 3.77786,-3.10953 8.97202,-3.20815 13.40365,-1.56015 4.43322,1.64981 8.28199,4.82389 12.05036,7.95135 5.6715,-7.82582 15.51944,-11.36752 24.11019,-8.67582 8.5939,2.69169 15.46114,11.47152 16.816,21.49767 3.36193,-3.16332 11.02162,-0.72807 12.07873,-0.21341 3.49585,1.70181 5.78808,4.77727 7.21381,8.84619 2.86097,8.16294 0.01,18.64099 -6.77114,22.84083 -9.33906,5.78149 -20.61747,-1.10107 -29.47761,-7.78816 -1.04764,5.69361 -7.21699,8.23289 -11.50055,7.02063 -2.48758,7.22328 -8.45211,12.31436 -14.86879,14.93969 -6.41509,2.62535 -13.96448,4.20523 -20.1291,3.5973 -1.61479,10.5444 -9.881,19.29196 -19.23584,20.36074 -9.35483,1.06879 -18.98063,-5.63803 -22.40401,-15.605 -13.59898,5.20047 -31.17277,6.96505 -40.80329,-7.31652 -2.86727,-4.25183 -4.58605,-9.82531 -3.48168,-15.03654 -5.06025,0.49853 -10.27803,-2.0228 -13.4777,-6.51135 -6.13781,6.05048 -14.49699,8.67404 -22.61668,8.50368 -13.26814,-0.27796 -24.54656,-7.66621 -35.71784,-14.92535 -5.59116,4.30024 -13.933,3.05572 -18.36214,-2.7419" /><path
       id="path112"
       style="fill:#add5f2;fill-opacity:1;fill-rule:nonzero;stroke:none;stroke-width:0.168081"
       d="m 227.0529,216.64783 c 3.53837,-3.52555 8.65532,-4.02947 13.35006,-3.70846 7.16187,0.48776 15.20278,3.37851 18.04169,10.87794 2.82944,-2.39758 11.59192,-1.57806 12.4899,-1.3306 5.58642,1.53503 10.82943,4.32177 15.31778,8.43732 3.77786,-3.10953 8.97202,-3.20815 13.40365,-1.56015 4.43322,1.64981 8.28199,4.82389 12.05036,7.95135 5.6715,-7.82582 15.51944,-11.36752 24.11019,-8.67582 8.5939,2.69169 15.46114,11.47152 16.816,21.49767 3.36193,-3.16332 11.02162,-0.72807 12.07873,-0.21341 3.49585,1.70181 5.78808,4.77727 7.21381,8.84619 0.72943,2.08378 1.0839,4.31818 1.09968,6.55975 -3.19495,-12.15295 -18.71597,-12.53671 -24.31657,-8.04458 -2.66248,-5.17895 -14.1504,-11.83555 -21.10273,-10.49599 -2.79794,0.53799 -7.63918,2.91764 -10.29378,3.24045 -1.49031,0.1829 -5.95822,-6.6351 -11.89439,-9.6675 -7.34772,-3.75331 -19.64388,-1.43283 -13.61319,4.45267 4.58605,2.39401 8.53561,5.96261 10.83415,10.69504 -9.46826,-7.79891 -21.27758,-13.91574 -35.42483,-16.94099 -14.00231,-2.99474 -26.96168,0.70657 -16.40164,7.33447 2.08899,0.5308 4.1386,1.24273 6.12678,2.13936 5.28868,2.3456 10.22918,6.07199 13.56433,11.17384 -4.70418,-3.3534 -9.64469,-5.58962 -14.73487,-7.03139 -5.09647,-1.38799 -10.30954,-2.02102 -15.50997,-1.92059 -5.19731,0.10763 -10.38356,0.94685 -15.34141,2.715 -4.93107,1.83273 -9.6321,4.60689 -13.47771,9.18511 v 0 0 0 0 c 4.1465,-13.62165 -8.25991,-18.88847 -15.05312,-12.83619 2.16621,-9.22277 -1.93459,-21.67341 -10.31896,-25.42851 -8.38596,-3.75331 -18.29688,-2.76164 -25.97863,2.60024 -3.67858,-5.11261 -10.03224,-7.51917 -15.67067,-5.93214 -4.39383,1.23735 -8.15437,4.86334 -10.16144,9.46307 4.82392,0.21879 9.61793,1.28398 14.09842,3.30679 5.29025,2.342 10.23074,6.0684 13.56433,11.17204 -4.70421,-3.35341 -9.64313,-5.58782 -14.73331,-7.03139 -5.09803,-1.388 -10.30952,-2.02282 -15.51156,-1.9206 -5.19571,0.10763 -10.38357,0.94506 -15.34139,2.71501 -4.93011,1.83272 -9.63243,4.6069 -13.47676,9.18689 0.87075,-2.41552 2.19331,-4.58537 3.78653,-6.51134 -4.19218,-7.8294 -15.457512,-10.50136 -20.844203,-3.63854 -3.46274,-6.83413 -10.914622,-10.71655 -17.720897,-9.2371 -6.806903,1.47943 -12.986808,10.38299 -10.307969,19.27581 -1.544681,-1.82734 -3.347745,-2.89612 -5.232103,-3.64212 -1.89113,-0.70476 -3.868278,-1.08314 -5.829672,-1.04368 -1.961867,-0.0115 -3.904057,0.40527 -5.723191,1.24452 -1.820851,0.85898 -3.476929,2.22187 -5.001933,4.0761 0.534854,-2.45858 2.03024,-4.71451 4.01243,-6.16167 1.395661,-1.05085 2.996916,-1.6749 4.638816,-1.97798 -1.921869,-4.8436 -6.251114,-6.47906 -11.259349,-6.58486 -5.470163,-0.11662 -10.801374,4.12451 -12.586007,10.01181 -2.360148,-5.07674 -7.62171,-8.18985 -12.6279143,-7.47075 -3.1933696,0.45728 -6.1368787,2.46394 -8.16396759,5.30089 4.40691349,-14.06279 14.37268689,-12.74653 23.57956589,-5.45332 1.781655,-5.94826 7.110976,-10.27003 12.631064,-10.24493 5.52012,0.0251 10.81998,4.39351 12.559713,10.3579 6.341669,-5.96439 12.971355,-12.09915 20.950527,-14.37481 7.979175,-2.27745 17.714763,0.51645 21.524117,8.81568 6.334926,-4.94582 14.852563,-6.04509 21.999903,-2.83873 5.4182,-3.90394 12.89039,-3.71026 18.14597,0.47343 4.06143,-11.8822 13.92985,-20.9346 24.99084,-22.93229 11.06101,-1.99591 22.90658,3.13642 29.99908,13.00476 10.73491,-3.51479 23.2768,5.33856 25.28232,17.84658 2.44976,-4.80774 10.03223,-6.601 15.12873,-5.25606 -3.95115,-2.89971 -3.27374,-10.32562 0.26467,-13.85119" /><path
       id="path114"
       style="fill:#ffffff;fill-opacity:1;fill-rule:nonzero;stroke:none;stroke-width:0.168081"
       d="m 370.03459,276.52498 c -1.26507,2.08557 -2.90034,3.85731 -4.88066,5.08571 -9.33906,5.78149 -20.61747,-1.10107 -29.47761,-7.78816 -1.04764,5.69361 -7.21699,8.23289 -11.50055,7.02063 -2.48758,7.22328 -8.45211,12.31436 -14.86879,14.93969 -6.41509,2.62535 -13.96448,4.20523 -20.1291,3.5973 -1.61479,10.5444 -9.881,19.29196 -19.23584,20.36074 -9.35483,1.06879 -18.98063,-5.63803 -22.40401,-15.605 -13.59898,5.20047 -31.17277,6.96505 -40.80329,-7.31652 -2.86727,-4.25183 -4.58605,-9.82531 -3.48168,-15.03654 -5.06025,0.49853 -10.27803,-2.0228 -13.4777,-6.51135 -6.13781,6.05048 -14.49699,8.67404 -22.61668,8.50368 -13.26814,-0.27796 -24.54656,-7.66621 -35.71784,-14.92535 -5.59116,4.30024 -13.933,3.05572 -18.36214,-2.7419 -5.20312,13.01373 -17.587944,19.29375 -29.614028,17.37674 -5.355146,-0.85539 -11.103065,-1.81658 -15.672404,-5.26503 -1.801804,-1.3611 -9.846357,-7.59627 -10.602714,-15.56016 -2.907763,4.22493 -7.922001,6.42705 -12.569466,5.51607 -4.64685,-0.90738 -8.728125,-4.88844 -10.229041,-9.97593 -3.865427,5.6452 -9.843977,9.47561 -16.125323,9.81992 -6.280715,0.34251 -12.7233834,-2.98399 -16.2987919,-8.87308 -1.25907331,-2.07302 -2.11578663,-4.43475 -2.59518644,-6.8933 4.08694684,7.30934 11.64895034,9.46305 17.61332234,9.40388 7.548437,-0.0736 14.178753,-4.33253 17.854501,-10.16065 2.494199,8.51801 19.495801,11.13259 23.762345,1.86679 -0.106342,1.6229 -0.459076,3.06469 -0.918783,5.0068 2.273327,6.38403 9.321413,11.20791 16.103113,11.50379 7.321432,0.31921 14.840291,-4.43116 17.169068,-12.33766 1.715,5.90343 7.163104,10.3597 12.602058,9.7715 8.74041,-0.94325 3.23812,-6.27105 2.14336,-10.58206 5.31704,6.50059 23.72988,8.60408 31.41003,1.1208 11.12717,14.79444 41.74855,16.55005 54.64805,1.34494 0.0425,4.88307 1.7629,8.78342 5.42259,11.33164 3.04529,2.11786 7.87708,3.48432 11.56673,2.11786 4.05667,4.52441 8.86485,7.39364 13.90936,9.34651 5.0681,1.89188 10.36622,2.89254 15.70215,3.18842 5.33753,0.2923 10.71286,-0.11662 16.01255,-1.23735 5.29497,-1.17819 10.46708,-3.11491 15.46746,-6.14195 -3.80307,4.83107 -9.04449,8.1773 -14.53322,10.20369 -2.83262,1.06162 -5.75817,1.7825 -8.72153,2.19675 2.67666,3.66184 6.61834,6.73909 14.93339,8.0948 8.32136,1.3593 20.90421,-2.67197 27.03732,-11.91804 10.43555,7.85808 29.20822,-2.72935 27.79508,-15.75564 -0.50731,-0.26541 -1.02088,-0.51466 -1.51557,-0.80696 -3.1461,-1.90087 -6.02597,-4.30563 -8.34183,-7.36496 3.39029,1.17819 6.54271,2.46037 9.72189,3.45204 3.16344,1.01859 6.30641,1.81479 9.47457,2.30615 3.16659,0.49314 6.35838,0.68144 9.6132,0.5577 3.26425,-0.0915 6.55689,-0.55412 10.08109,-1.00422 -1.65733,1.49558 -3.51475,2.68093 -5.47141,3.62597 6.91606,6.41272 22.237,12.96353 30.12196,5.1413" /><path
       id="path42"
       style="fill:#e0f5fd;fill-opacity:1;fill-rule:nonzero;stroke:none;stroke-width:0.0999997"
       d="m 332.36977,377.24003 c -2.165,-0.647 -4.184,-2.194 -5.65,-3.781 -0.028,1.279 -0.91,2.384 -2.12,2.79 -1.207,0.404 -2.545,0.163 -3.722,-0.319 -0.883,-0.362 -3.451,-1.857 -3.388,-4.795 -1.27,-0.792 -2.053,-2.57 -2.187,-3.06 -0.453,-1.663 0.218,-3.639 1.618,-4.649 1.931,-1.392 4.806,-1.035 6.592,0.539 0.882,-1.471 2.344,-3.539 2.657,-3.856 1.159,-1.17 2.494,-2.211 4.021,-2.828 3.954,-1.599 6.268,-1.192 9.829,0.057 2.608,0.914 6.563,3.531 7.232,6.352 0.719,-1.1 1.958,-1.844 3.267,-1.962 1.557,-0.141 4.251,0.766 5.159,1.853 1.301,-1.491 3.324,-1.506 5.147,-1.122 1.804,0.381 3.651,1.019 4.879,2.394 1.906,2.137 2.506,4.956 1.843,7.688 -0.347,1.433 -1.062,2.807 -2.187,3.761 -1.219,1.033 -3.276,1.691 -4.852,1.864 -0.372,0.041 -2.125,-0.039 -3.351,-0.472 -0.328,2.798 -2.821,5.049 -5.587,5.588 -2.766,0.538 -5.671,-0.419 -7.951,-2.076 -0.691,-0.503 -3.349,-3.055 -4.035,-5.829 -1.425,1.6 -3.676,2.361 -5.807,2.146 -0.473,-0.047 -0.943,-0.144 -1.407,-0.283" /><path
       id="path44"
       style="fill:#add5f2;fill-opacity:1;fill-rule:nonzero;stroke:none;stroke-width:0.0999997"
       d="m 315.19577,366.55703 c 0.123,-1.224 0.737,-2.419 1.725,-3.131 1.931,-1.392 4.806,-1.035 6.592,0.539 0.882,-1.471 2.344,-3.539 2.657,-3.856 1.159,-1.17 2.494,-2.211 4.021,-2.828 3.954,-1.599 6.268,-1.192 9.829,0.057 2.608,0.914 6.563,3.531 7.232,6.352 0.719,-1.1 1.958,-1.844 3.267,-1.962 1.557,-0.14 4.251,0.766 5.159,1.853 1.301,-1.491 3.324,-1.506 5.147,-1.122 1.804,0.381 3.651,1.019 4.879,2.394 1.093,1.225 1.742,2.678 1.984,4.206 -2.594,-4.508 -5.977,-3.339 -7.831,-1.253 0.416,-0.063 0.843,-0.07 1.264,-0.02 1.707,0.219 3.182,1.382 3.845,2.844 -1.173,-1.083 -2.495,-1.882 -3.944,-2.061 -1.445,-0.194 -2.918,0.28 -4.262,1.142 0.462,-0.656 1.113,-1.207 1.879,-1.544 0.249,-0.115 0.513,-0.197 0.782,-0.265 -0.729,-1.546 -2.931,-2.833 -5.421,-3.167 -1.831,-0.245 -3.761,0.342 -5.172,1.534 1.286,0.931 2.28,2.183 2.912,3.564 -1.134,-1.086 -2.305,-2.044 -3.615,-2.695 -1.302,-0.654 -2.7,-1.033 -4.128,-1.105 -1.426,-0.077 -2.846,0.142 -4.202,0.656 -1.357,0.518 -2.634,1.305 -3.868,2.285 0.725,-1.402 1.914,-2.594 3.355,-3.385 1.441,-0.796 3.149,-1.163 4.804,-1.037 0.965,0.065 1.916,0.298 2.813,0.656 -2.332,-2.633 -6.316,-5.361 -12.097,-4.745 -2.802,0.299 -5.738,1.775 -6.958,4.1 -2.159,-1.036 -3.857,-0.093 -4.328,2.856 0.032,0.01 0.064,0.016 0.096,0.027 0.669,0.226 1.268,0.643 1.72,1.162 0.446,0.527 0.746,1.143 0.923,1.777 -0.385,-0.537 -0.8,-1.027 -1.277,-1.418 -0.477,-0.389 -1.008,-0.683 -1.585,-0.836 -0.568,-0.173 -1.187,-0.206 -1.788,-0.207 -0.601,0.003 -1.218,0.102 -1.897,0.18 0.507,-0.445 1.14,-0.771 1.84,-0.865 0.545,-0.077 1.094,-0.039 1.631,0.087 -1.646,-3.664 -6.714,-4.072 -7.983,-0.769" /><path
       id="path46"
       style="fill:#ffffff;fill-opacity:1;fill-rule:nonzero;stroke:none;stroke-width:0.0999997"
       d="m 355.59477,373.91703 c 2.233,2.474 8.415,3.637 11.541,-0.146 -0.401,0.967 -0.981,1.856 -1.776,2.531 -1.219,1.033 -3.276,1.691 -4.852,1.864 -0.372,0.041 -2.125,-0.039 -3.351,-0.472 -0.328,2.798 -2.821,5.049 -5.587,5.588 -2.766,0.538 -5.671,-0.419 -7.951,-2.076 -0.691,-0.503 -3.349,-3.055 -4.035,-5.829 -1.425,1.6 -3.676,2.361 -5.807,2.146 -0.473,-0.047 -0.943,-0.144 -1.407,-0.283 -2.165,-0.647 -4.184,-2.194 -5.65,-3.781 -0.028,1.279 -0.91,2.384 -2.12,2.79 -1.207,0.404 -2.545,0.163 -3.722,-0.319 -0.883,-0.362 -3.451,-1.857 -3.388,-4.795 -1.27,-0.792 -2.053,-2.57 -2.187,-3.06 -0.014,-0.052 -0.017,-0.106 -0.029,-0.159 0.86,1.923 2.139,2.213 3.653,1.594 -0.995,1.59 0.396,3.723 2.139,4.417 3.204,1.276 5.587,-0.851 5.361,-2.714 1.125,0.973 2.343,-0.187 2.313,-1.303 0.71,2.082 2.648,3.496 4.754,4.13 1.756,0.529 3.419,0.27 4.563,-0.145 -0.636,-0.482 -1.205,-1.045 -1.628,-1.709 2.169,1.194 4.342,1.832 6.627,2.133 1.138,0.152 2.289,0.212 3.459,0.217 1.172,-0.004 2.353,-0.081 3.6,-0.151 -1.057,0.666 -2.253,1.086 -3.486,1.316 -0.46,0.089 -0.927,0.141 -1.396,0.172 3.329,3.064 9.078,2.298 10.362,-1.956" /><path
       id="path42-5"
       style="fill:#e0f5fd;fill-opacity:1;fill-rule:nonzero;stroke:none;stroke-width:0.0999997"
       d="m 336.97788,227.53788 c -2.165,-0.647 -4.184,-2.194 -5.65,-3.781 -0.028,1.279 -0.91,2.384 -2.12,2.79 -1.207,0.404 -2.545,0.163 -3.722,-0.319 -0.883,-0.362 -3.451,-1.857 -3.388,-4.795 -1.27,-0.792 -2.053,-2.57 -2.187,-3.06 -0.453,-1.663 0.218,-3.639 1.618,-4.649 1.931,-1.392 4.806,-1.035 6.592,0.539 0.882,-1.471 2.344,-3.539 2.657,-3.856 1.159,-1.17 2.494,-2.211 4.021,-2.828 3.954,-1.599 6.268,-1.192 9.829,0.057 2.608,0.914 6.563,3.531 7.232,6.352 0.719,-1.1 1.958,-1.844 3.267,-1.962 1.557,-0.141 4.251,0.766 5.159,1.853 1.301,-1.491 3.324,-1.506 5.147,-1.122 1.804,0.381 3.651,1.019 4.879,2.394 1.906,2.137 2.506,4.956 1.843,7.688 -0.347,1.433 -1.062,2.807 -2.187,3.761 -1.219,1.033 -3.276,1.691 -4.852,1.864 -0.372,0.041 -2.125,-0.039 -3.351,-0.472 -0.328,2.798 -2.821,5.049 -5.587,5.588 -2.766,0.538 -5.671,-0.419 -7.951,-2.076 -0.691,-0.503 -3.349,-3.055 -4.035,-5.829 -1.425,1.6 -3.676,2.361 -5.807,2.146 -0.473,-0.047 -0.943,-0.144 -1.407,-0.283" /><path
       id="path44-6"
       style="fill:#add5f2;fill-opacity:1;fill-rule:nonzero;stroke:none;stroke-width:0.0999997"
       d="m 319.80388,216.85488 c 0.123,-1.224 0.737,-2.419 1.725,-3.131 1.931,-1.392 4.806,-1.035 6.592,0.539 0.882,-1.471 2.344,-3.539 2.657,-3.856 1.159,-1.17 2.494,-2.211 4.021,-2.828 3.954,-1.599 6.268,-1.192 9.829,0.057 2.608,0.914 6.563,3.531 7.232,6.352 0.719,-1.1 1.958,-1.844 3.267,-1.962 1.557,-0.14 4.251,0.766 5.159,1.853 1.301,-1.491 3.324,-1.506 5.147,-1.122 1.804,0.381 3.651,1.019 4.879,2.394 1.093,1.225 1.742,2.678 1.984,4.206 -2.594,-4.508 -5.977,-3.339 -7.831,-1.253 0.416,-0.063 0.843,-0.07 1.264,-0.02 1.707,0.219 3.182,1.382 3.845,2.844 -1.173,-1.083 -2.495,-1.882 -3.944,-2.061 -1.445,-0.194 -2.918,0.28 -4.262,1.142 0.462,-0.656 1.113,-1.207 1.879,-1.544 0.249,-0.115 0.513,-0.197 0.782,-0.265 -0.729,-1.546 -2.931,-2.833 -5.421,-3.167 -1.831,-0.245 -3.761,0.342 -5.172,1.534 1.286,0.931 2.28,2.183 2.912,3.564 -1.134,-1.086 -2.305,-2.044 -3.615,-2.695 -1.302,-0.654 -2.7,-1.033 -4.128,-1.105 -1.426,-0.077 -2.846,0.142 -4.202,0.656 -1.357,0.518 -2.634,1.305 -3.868,2.285 0.725,-1.402 1.914,-2.594 3.355,-3.385 1.441,-0.796 3.149,-1.163 4.804,-1.037 0.965,0.065 1.916,0.298 2.813,0.656 -2.332,-2.633 -6.316,-5.361 -12.097,-4.745 -2.802,0.299 -5.738,1.775 -6.958,4.1 -2.159,-1.036 -3.857,-0.093 -4.328,2.856 0.032,0.01 0.064,0.016 0.096,0.027 0.669,0.226 1.268,0.643 1.72,1.162 0.446,0.527 0.746,1.143 0.923,1.777 -0.385,-0.537 -0.8,-1.027 -1.277,-1.418 -0.477,-0.389 -1.008,-0.683 -1.585,-0.836 -0.568,-0.173 -1.187,-0.206 -1.788,-0.207 -0.601,0.003 -1.218,0.102 -1.897,0.18 0.507,-0.445 1.14,-0.771 1.84,-0.865 0.545,-0.077 1.094,-0.039 1.631,0.087 -1.646,-3.664 -6.714,-4.072 -7.983,-0.769" /><path
       id="path46-3"
       style="fill:#ffffff;fill-opacity:1;fill-rule:nonzero;stroke:none;stroke-width:0.0999997"
       d="m 360.20288,224.21488 c 2.233,2.474 8.415,3.637 11.541,-0.146 -0.401,0.967 -0.981,1.856 -1.776,2.531 -1.219,1.033 -3.276,1.691 -4.852,1.864 -0.372,0.041 -2.125,-0.039 -3.351,-0.472 -0.328,2.798 -2.821,5.049 -5.587,5.588 -2.766,0.538 -5.671,-0.419 -7.951,-2.076 -0.691,-0.503 -3.349,-3.055 -4.035,-5.829 -1.425,1.6 -3.676,2.361 -5.807,2.146 -0.473,-0.047 -0.943,-0.144 -1.407,-0.283 -2.165,-0.647 -4.184,-2.194 -5.65,-3.781 -0.028,1.279 -0.91,2.384 -2.12,2.79 -1.207,0.404 -2.545,0.163 -3.722,-0.319 -0.883,-0.362 -3.451,-1.857 -3.388,-4.795 -1.27,-0.792 -2.053,-2.57 -2.187,-3.06 -0.014,-0.052 -0.017,-0.106 -0.029,-0.159 0.86,1.923 2.139,2.213 3.653,1.594 -0.995,1.59 0.396,3.723 2.139,4.417 3.204,1.276 5.587,-0.851 5.361,-2.714 1.125,0.973 2.343,-0.187 2.313,-1.303 0.71,2.082 2.648,3.496 4.754,4.13 1.756,0.529 3.419,0.27 4.563,-0.145 -0.636,-0.482 -1.205,-1.045 -1.628,-1.709 2.169,1.194 4.342,1.832 6.627,2.133 1.138,0.152 2.289,0.212 3.459,0.217 1.172,-0.004 2.353,-0.081 3.6,-0.151 -1.057,0.666 -2.253,1.086 -3.486,1.316 -0.46,0.089 -0.927,0.141 -1.396,0.172 3.329,3.064 9.078,2.298 10.362,-1.956" /></g></svg>
