<?xml version="1.0" encoding="UTF-8" standalone="no"?>
<svg
   xmlns:dc="http://purl.org/dc/elements/1.1/"
   xmlns:cc="http://creativecommons.org/ns#"
   xmlns:rdf="http://www.w3.org/1999/02/22-rdf-syntax-ns#"
   xmlns:svg="http://www.w3.org/2000/svg"
   xmlns="http://www.w3.org/2000/svg"
   xmlns:sodipodi="http://sodipodi.sourceforge.net/DTD/sodipodi-0.dtd"
   xmlns:inkscape="http://www.inkscape.org/namespaces/inkscape"
   inkscape:version="1.0 (1.0+r73+1)"
   sodipodi:docname="copy.svg"
   id="svg1035"
   version="1.1"
   width="512pt"
   viewBox="-40 0 512 512"
   height="512pt">
  <metadata
     id="metadata1041">
    <rdf:RDF>
      <cc:Work
         rdf:about="">
        <dc:format>image/svg+xml</dc:format>
        <dc:type
           rdf:resource="http://purl.org/dc/dcmitype/StillImage" />
        <dc:title></dc:title>
      </cc:Work>
    </rdf:RDF>
  </metadata>
  <defs
     id="defs1039" />
  <sodipodi:namedview
     inkscape:current-layer="svg1035"
     inkscape:window-maximized="1"
     inkscape:window-y="0"
     inkscape:window-x="0"
     inkscape:cy="341.33333"
     inkscape:cx="341.33333"
     inkscape:zoom="0.75585938"
     showgrid="false"
     id="namedview1037"
     inkscape:window-height="715"
     inkscape:window-width="1366"
     inkscape:pageshadow="2"
     inkscape:pageopacity="0"
     guidetolerance="10"
     gridtolerance="10"
     objecttolerance="10"
     borderopacity="1"
     bordercolor="#666666"
     pagecolor="#ffffff" />
  <path
     style="fill:#ffffff;fill-opacity:1"
     id="path1033"
     d="m271 512h-191c-44.113281 0-80-35.886719-80-80v-271c0-44.113281 35.886719-80 80-80h191c44.113281 0 80 35.886719 80 80v271c0 44.113281-35.886719 80-80 80zm-191-391c-22.054688 0-40 17.945312-40 40v271c0 22.054688 17.945312 40 40 40h191c22.054688 0 40-17.945312 40-40v-271c0-22.054688-17.945312-40-40-40zm351 261v-302c0-44.113281-35.886719-80-80-80h-222c-11.046875 0-20 8.953125-20 20s8.953125 20 20 20h222c22.054688 0 40 17.945312 40 40v302c0 11.046875 8.953125 20 20 20s20-8.953125 20-20zm0 0" />
</svg>
