<?xml version="1.0" encoding="UTF-8" standalone="no"?>
<svg
   xmlns:dc="http://purl.org/dc/elements/1.1/"
   xmlns:cc="http://creativecommons.org/ns#"
   xmlns:rdf="http://www.w3.org/1999/02/22-rdf-syntax-ns#"
   xmlns:svg="http://www.w3.org/2000/svg"
   xmlns="http://www.w3.org/2000/svg"
   xmlns:sodipodi="http://sodipodi.sourceforge.net/DTD/sodipodi-0.dtd"
   xmlns:inkscape="http://www.inkscape.org/namespaces/inkscape"
   inkscape:version="1.0 (1.0+r73+1)"
   sodipodi:docname="sound.svg"
   viewBox="0 0 300 125.07733"
   height="125.07733"
   width="300"
   xml:space="preserve"
   id="svg2"
   version="1.1"><metadata
     id="metadata8"><rdf:RDF><cc:Work
         rdf:about=""><dc:format>image/svg+xml</dc:format><dc:type
           rdf:resource="http://purl.org/dc/dcmitype/StillImage" /><dc:title></dc:title></cc:Work></rdf:RDF></metadata><defs
     id="defs6" /><sodipodi:namedview
     inkscape:current-layer="g12"
     inkscape:window-maximized="1"
     inkscape:window-y="0"
     inkscape:window-x="0"
     inkscape:cy="80.382977"
     inkscape:cx="182.59329"
     inkscape:zoom="1.9525"
     fit-margin-bottom="0"
     fit-margin-right="0"
     fit-margin-left="0"
     fit-margin-top="0"
     showgrid="false"
     inkscape:document-rotation="0"
     id="namedview4"
     inkscape:window-height="715"
     inkscape:window-width="1366"
     inkscape:pageshadow="2"
     inkscape:pageopacity="0"
     guidetolerance="10"
     gridtolerance="10"
     objecttolerance="10"
     borderopacity="1"
     bordercolor="#666666"
     pagecolor="#43ffff" /><g
     transform="matrix(1.3333333,0,0,-1.3333333,0,533.33333)"
     inkscape:label="ink_ext_XXXXXX"
     inkscape:groupmode="layer"
     id="g10"><g
       transform="scale(0.1)"
       id="g12"><path
         id="path20"
         style="fill:#ffffff;fill-opacity:1;fill-rule:nonzero;stroke:none"
         d="m 477.867,3992.9901 c -12.871,5.33 -27.675,2.39 -37.515,-7.46 l -268.051,-268.05 H 34.418 c -19.004,0 -34.418,-15.41 -34.418,-34.42 v -304.29 c 0,-19 15.414,-34.42 34.418,-34.42 h 137.879 l 268.055,-268.14 c 6.582,-6.58 15.386,-10.07 24.347,-10.07 4.438,0 8.911,0.86 13.161,2.61 12.875,5.33 21.267,17.87 21.267,31.8 v 860.64 c 0,13.92 -8.392,26.48 -21.26,31.8" /><path
         id="path22"
         style="fill:#ffffff;fill-opacity:1;fill-rule:nonzero;stroke:none"
         d="m 616.837,3340.0501 c -9.9,0 -19.79,3.78 -27.36,11.3 -15.14,15.12 -15.16,39.65 -0.05,54.78 33.33,33.4 51.68,77.71 51.68,124.79 0,47.14 -18.34,91.46 -51.65,124.75 -15.12,15.13 -15.12,39.66 -0.01,54.77 15.12,15.13 39.65,15.12 54.77,0.01 47.94,-47.94 74.33,-111.7 74.33,-179.53 0,-67.73 -26.38,-131.48 -74.3,-179.5 -7.57,-7.57 -17.49,-11.37 -27.41,-11.37" /><path
         id="path24"
         style="fill:#ffffff;fill-opacity:1;fill-rule:nonzero;stroke:none"
         d="m 753.187,3187.9501 c -21.38,0 -38.72,17.29 -38.72,38.67 v 0.09 c 0,10.28 4.07,20.12 11.34,27.37 73.98,74.01 114.73,172.31 114.73,276.84 0,104.6 -40.74,202.91 -114.72,276.8 -15.12,15.11 -15.14,39.64 -0.02,54.77 15.12,15.11 39.64,15.15 54.77,0.02 88.62,-88.52 137.42,-206.29 137.42,-331.59 0,-124.85 -48.53,-242.3 -136.65,-330.84 -7.06,-7.47 -17.05,-12.13 -28.15,-12.13" /><path
         id="path26"
         style="fill:#ffffff;fill-opacity:1;fill-rule:nonzero;stroke:none"
         d="m 894.967,3061.9201 c -9.92,0 -19.82,3.79 -27.39,11.35 -15.12,15.13 -15.11,39.65 0.03,54.76 107.65,107.59 166.95,250.66 166.95,402.89 0,152.25 -59.27,295.37 -166.89,402.98 -15.13,15.12 -15.13,39.63 0,54.76 15.13,15.12 39.64,15.12 54.77,0 122.24,-122.23 189.56,-284.8 189.56,-457.74 0,-172.93 -67.36,-335.47 -189.66,-457.67 -7.56,-7.54 -17.46,-11.33 -27.37,-11.33" /><path
         id="path34"
         style="fill:#ffffff;fill-opacity:1;fill-rule:nonzero;stroke:none"
         d="m 1602.88,3997.3833 c -12.88,5.32 -27.66,2.38 -37.52,-7.47 l -268.05,-268.05 h -137.89 c -19,0 -34.42,-15.41 -34.42,-34.43 v -304.27 c 0,-19.01 15.42,-34.44 34.42,-34.44 h 137.89 l 268.05,-268.12 c 6.59,-6.59 15.39,-10.08 24.36,-10.08 4.43,0 8.89,0.86 13.16,2.62 12.86,5.33 21.24,17.87 21.24,31.79 v 860.64 c 0,13.92 -8.38,26.47 -21.24,31.81" /><path
         id="path36"
         style="fill:#ffffff;fill-opacity:1;fill-rule:nonzero;stroke:none"
         d="m 1949.87,3536.0833 124.53,123.88 c 15.17,15.09 15.22,39.61 0.14,54.78 -15.09,15.15 -39.6,15.21 -54.76,0.14 l -124.82,-124.18 -124.82,124.18 c -15.16,15.07 -39.67,15.01 -54.76,-0.14 -15.09,-15.17 -15.02,-39.69 0.14,-54.78 l 124.52,-123.88 -124.55,-123.92 c -15.16,-15.08 -15.22,-39.59 -0.14,-54.75 7.57,-7.61 17.51,-11.42 27.45,-11.42 9.88,0 19.76,3.76 27.32,11.27 l 124.84,124.18 124.82,-124.18 c 7.55,-7.51 17.43,-11.27 27.32,-11.27 9.93,0 19.88,3.81 27.44,11.42 15.08,15.16 15.03,39.67 -0.14,54.75 l -124.53,123.92" /></g></g></svg>
