<?xml version="1.0" encoding="UTF-8" standalone="no"?>
<svg
   xmlns:dc="http://purl.org/dc/elements/1.1/"
   xmlns:cc="http://creativecommons.org/ns#"
   xmlns:rdf="http://www.w3.org/1999/02/22-rdf-syntax-ns#"
   xmlns:svg="http://www.w3.org/2000/svg"
   xmlns="http://www.w3.org/2000/svg"
   xmlns:sodipodi="http://sodipodi.sourceforge.net/DTD/sodipodi-0.dtd"
   xmlns:inkscape="http://www.inkscape.org/namespaces/inkscape"
   sodipodi:docname="tutorialCloseZone.svg"
   inkscape:version="1.0 (1.0+r73+1)"
   id="svg6234"
   version="1.1"
   viewBox="0 0 79.375 79.375"
   height="79.375mm"
   width="79.375mm">
  <defs
     id="defs6228" />
  <sodipodi:namedview
     inkscape:window-maximized="1"
     inkscape:window-y="0"
     inkscape:window-x="0"
     inkscape:window-height="715"
     inkscape:window-width="1366"
     fit-margin-bottom="0"
     fit-margin-right="0"
     fit-margin-left="0"
     fit-margin-top="0"
     showgrid="false"
     inkscape:document-rotation="0"
     inkscape:current-layer="layer1"
     inkscape:document-units="mm"
     inkscape:cy="128.87218"
     inkscape:cx="153.71389"
     inkscape:zoom="1.4"
     inkscape:pageshadow="2"
     inkscape:pageopacity="0.0"
     borderopacity="1.0"
     bordercolor="#666666"
     pagecolor="#ffffff"
     id="base" />
  <metadata
     id="metadata6231">
    <rdf:RDF>
      <cc:Work
         rdf:about="">
        <dc:format>image/svg+xml</dc:format>
        <dc:type
           rdf:resource="http://purl.org/dc/dcmitype/StillImage" />
        <dc:title></dc:title>
      </cc:Work>
    </rdf:RDF>
  </metadata>
  <g
     id="layer1"
     inkscape:groupmode="layer"
     inkscape:label="Слой 1">
    <path
       d="M 18.364591,73.160343 A 39.6875,39.6875 0 0 1 5.0670011,20.28341 39.6875,39.6875 0 0 1 57.111187,4.0292222 39.6875,39.6875 0 0 1 76.270386,55.075486 39.6875,39.6875 0 0 1 26.384053,77.078889"
       sodipodi:arc-type="arc"
       sodipodi:open="true"
       sodipodi:end="1.9126191"
       sodipodi:start="2.1379934"
       sodipodi:ry="39.6875"
       sodipodi:rx="39.6875"
       sodipodi:cy="39.6875"
       sodipodi:cx="39.6875"
       sodipodi:type="arc"
       id="path8516"
       style="fill:#f90000;fill-opacity:0.5;stroke-width:0.0272521" />
    <path
       d="m 41.493093,37.713168 c -0.376086,0.397704 -0.589728,0.792829 -0.476346,0.882555 0.114265,0.0892 0.511842,-0.161078 0.889096,-0.559163 0.376527,-0.397405 0.589167,-0.791987 0.47601,-0.881571 -0.114342,-0.0893 -0.511394,0.160196 -0.88876,0.558179"
       style="fill:#da7928;fill-opacity:1;fill-rule:nonzero;stroke:none;stroke-width:0.0116887"
       id="path1118" />
    <path
       d="m 46.672936,38.913914 c -2.537178,-0.03074 -4.402321,-0.4635 -6.616834,-3.164244 l -0.379751,0.424657 c 0,0 2.165766,3.418864 6.971877,2.910304 l 0.02471,-0.170717"
       style="fill:#f4924c;fill-opacity:1;fill-rule:nonzero;stroke:none;stroke-width:0.0116887"
       id="path1120" />
    <path
       d="m 42.868774,38.159379 c -0.92783,-0.46876 -1.83685,-1.218413 -2.812672,-2.409709 l -0.379751,0.424657 c 0,0 0.978376,1.544881 3.079774,2.403108 0.02592,-0.139263 0.06394,-0.27921 0.112649,-0.418056"
       style="fill:#f4924c;fill-opacity:1;fill-rule:nonzero;stroke:none;stroke-width:0.0116887"
       id="path1122" />
    <path
       d="m 41.029532,38.481924 c 0.248913,-0.676166 0.575095,-1.159436 1.270801,-1.332064 0,0 -1.949291,-1.599713 -3.042073,-1.62263 -0.830253,-0.01787 1.771272,2.954694 1.771272,2.954694"
       style="fill:#dfaa34;fill-opacity:1;fill-rule:nonzero;stroke:none;stroke-width:0.0116887"
       id="path1124" />
    <path
       d="M 42.39202,37.161699 42.136277,36.96427 c -0.713669,0.34041 -1.187263,0.811679 -1.399035,1.413408 l 0.268746,0.208499 c 0.143122,-0.685126 0.687094,-1.119593 1.386032,-1.424478"
       style="fill:#fcd97c;fill-opacity:1;fill-rule:nonzero;stroke:none;stroke-width:0.0116887"
       id="path1126" />
    <path
       d="m 46.101471,39.019628 c 0.01933,-0.106998 0.413886,-0.03525 0.553897,-0.39243 0.02321,-0.06169 0.05035,-0.158503 0.08366,-0.255059 0.05649,-0.170335 0.207002,-0.30541 0.288071,-0.252899 0.06819,0.04261 -0.04635,0.137852 -0.08872,0.257613 -0.03838,0.104245 -0.05415,0.140285 -0.02302,0.156083 0.02242,0.01241 0.102461,-0.105813 0.196818,-0.234033 0.121575,-0.164077 0.23881,-0.248959 0.319229,-0.193238 0.07775,0.05264 -0.03902,0.134289 -0.130873,0.294746 -0.07818,0.140138 -0.122026,0.194197 -0.04608,0.249421 0.03522,0.02459 0.101564,-0.05871 0.237927,-0.162772 0.158355,-0.122562 0.30123,-0.158757 0.354274,-0.102841 0.07631,0.08121 -0.05458,0.08247 -0.209078,0.247868 -0.201132,0.211491 -0.429634,0.381854 -0.412834,0.572587 0.01461,0.177084 0.456706,0.2693 0.381282,0.388066 -0.06134,0.0926 -0.406202,-0.114921 -0.851292,-0.326425 -0.356764,-0.170106 -0.673841,-0.132888 -0.653267,-0.246687"
       style="fill:#f4924c;fill-opacity:1;fill-rule:nonzero;stroke:none;stroke-width:0.0116887"
       id="path1128" />
    <path
       d="m 32.445591,36.363733 -0.918235,-0.921981 c 0,0 -0.201718,0.260025 -0.104111,0.410227 0.09672,0.148358 0.67595,0.740721 0.786514,0.7309 0.110949,-0.01089 0.235832,-0.219146 0.235832,-0.219146"
       style="fill:#72a7bc;fill-opacity:1;fill-rule:nonzero;stroke:none;stroke-width:0.0116887"
       id="path1130" />
    <path
       d="m 29.779745,34.540309 c -0.984561,-0.73128 -2.036886,-1.474389 -3.043393,-2.237288 l -0.127113,0.116364 c 0,0 1.453942,1.247376 2.73026,2.441864 l 0.440246,-0.32094"
       style="fill:#f8b56d;fill-opacity:1;fill-rule:nonzero;stroke:none;stroke-width:0.0116887"
       id="path1132" />
    <path
       d="m 29.780118,34.540571 c -0.330482,-0.24564 -0.667836,-0.492267 -1.009487,-0.740425 l -0.277372,0.282053 c 0.278987,0.253196 0.566657,0.516968 0.846099,0.778881 l 0.44076,-0.320509"
       style="fill:#f4924c;fill-opacity:1;fill-rule:nonzero;stroke:none;stroke-width:0.0116887"
       id="path1134" />
    <path
       d="m 26.54298,32.520999 0.257013,0.08458 0.452205,0.383737 0.160852,-0.18458 -0.594565,-0.482787 -0.275505,0.199055"
       style="fill:#b57ebc;fill-opacity:1;fill-rule:nonzero;stroke:none;stroke-width:0.0116887"
       id="path1136" />
    <path
       d="m 26.911823,32.306788 -1.062584,-0.01891 0.671939,0.266329 0.39327,-0.07827 -0.0016,-0.16914"
       style="fill:#edd3a7;fill-opacity:1;fill-rule:nonzero;stroke:none;stroke-width:0.0116887"
       id="path1138" />
    <path
       d="m 28.838745,34.958778 0.10304,0.0756 0.682032,-0.284423 0.01458,-1.056115 -0.799656,1.264973"
       style="fill:#bae8ef;fill-opacity:1;fill-rule:nonzero;stroke:none;stroke-width:0.0116887"
       id="path1140" />
    <path
       d="m 34.499936,35.767958 c -0.579885,-0.658826 -0.31775,-1.195496 -1.53131,-1.469654 -0.73341,0.0878 -1.772944,0.199101 -2.858135,-0.0732 -0.149641,-0.0368 -0.218334,-0.158016 -0.400081,-0.486099 0,0 -0.647002,1.015249 -0.793299,1.228877 0.375694,0.290216 0.969846,0.642055 1.245436,0.696087 0.875422,0.166401 3.418407,0.575024 3.883078,1.271308 l 0.454311,-1.167317"
       style="fill:#4a7990;fill-opacity:1;fill-rule:nonzero;stroke:none;stroke-width:0.0116887"
       id="path1142" />
    <path
       d="m 28.880105,34.989808 0.90086,-0.417022 0.0297,-0.949537 -0.206706,-0.09777 -0.825896,1.402902 0.102038,0.06145"
       style="fill:#97c6d4;fill-opacity:1;fill-rule:nonzero;stroke:none;stroke-width:0.0116887"
       id="path1144" />
    <path
       d="m 30.461639,37.243268 c -1.186571,-0.79532 -2.307914,-1.489915 -3.565832,-2.34962 l -0.165749,0.07732 c 0,0 1.905244,1.436028 3.604433,2.809191 l 0.127148,-0.536893"
       style="fill:#f8b56d;fill-opacity:1;fill-rule:nonzero;stroke:none;stroke-width:0.0116887"
       id="path1146" />
    <path
       d="M 30.462126,37.243649 C 30.06523,36.978424 29.660647,36.711784 29.251269,36.440787 l -0.03166,0.450878 c 0.3666,0.289211 0.745585,0.590321 1.11488,0.888517 l 0.127614,-0.536512"
       style="fill:#f4924c;fill-opacity:1;fill-rule:nonzero;stroke:none;stroke-width:0.0116887"
       id="path1148" />
    <path
       d="m 26.744402,35.11745 0.250585,0.068 0.583907,0.44764 0.0062,-0.293667 -0.670711,-0.424455 -0.170688,0.20248"
       style="fill:#b57ebc;fill-opacity:1;fill-rule:nonzero;stroke:none;stroke-width:0.0116887"
       id="path1150" />
    <path
       d="m 27.124344,34.774903 -1.032556,0.135375 0.621612,0.229334 0.391809,-0.154996 0.01913,-0.209713"
       style="fill:#edd3a7;fill-opacity:1;fill-rule:nonzero;stroke:none;stroke-width:0.0116887"
       id="path1152" />
    <path
       d="m 34.255528,35.312833 c 0.763337,0.923329 0.531851,1.747929 -0.404777,2.532387 -1.031018,0.138874 -3.582307,0.12084 -3.582307,0.12084 l -0.507136,-1.860031 c 3.089237,0.473216 2.120696,-2.668866 4.49422,-0.793196"
       style="fill:#5f8faa;fill-opacity:1;fill-rule:nonzero;stroke:none;stroke-width:0.0116887"
       id="path1154" />
    <path
       d="m 30.306551,38.09897 0.07309,-1.100685 -0.485521,-0.96435 -0.184168,0.01242 0.509161,2.036287 0.08744,0.01631"
       style="fill:#bae8ef;fill-opacity:1;fill-rule:nonzero;stroke:none;stroke-width:0.0116887"
       id="path1156" />
    <path
       d="m 32.402524,35.981957 c -0.199806,-0.02229 -1.063247,0.242238 -1.040141,0.426283 0.02368,0.190366 0.452565,0.819012 0.737602,0.882992 0.226402,0.05093 1.10599,-0.205338 1.10599,-0.205338 l -0.803451,-1.103937"
       style="fill:#72a7bc;fill-opacity:1;fill-rule:nonzero;stroke:none;stroke-width:0.0116887"
       id="path1158" />
    <path
       d="m 33.396042,37.132454 -1.001124,-1.338817 c 0,0 -0.456413,-0.05652 -0.388567,0.103279 0.06948,0.162165 0.684534,1.032574 0.877009,1.134312 0.193238,0.10215 0.512682,0.101226 0.512682,0.101226"
       style="fill:#97c6d4;fill-opacity:1;fill-rule:nonzero;stroke:none;stroke-width:0.0116887"
       id="path1160" />
    <path
       d="m 34.24975,35.426209 c -0.173828,-0.06123 -1.232285,-0.59072 -1.357965,-0.722842 -0.138402,-0.144212 -0.203208,-0.492637 0.09622,-0.399553 0.2344,0.07336 1.412441,0.711183 1.412441,0.711183 l -0.150692,0.411212"
       style="fill:#72a7bc;fill-opacity:1;fill-rule:nonzero;stroke:none;stroke-width:0.0116887"
       id="path1162" />
    <path
       d="m 34.096242,37.62273 c 0.02057,-0.0206 0.03963,-0.03974 0.05903,-0.05993 7.14e-4,0.0019 0.0017,0.0049 0.0022,0.0085 -0.01853,0.01824 -0.03907,0.03516 -0.06252,0.05146"
       style="fill:#d0aa8f;fill-opacity:1;fill-rule:nonzero;stroke:none;stroke-width:0.0116887"
       id="path1164" />
    <path
       d="m 32.830211,34.743344 c 0,-0.03897 8.46e-4,-0.07841 0.0022,-0.118777 0.01695,0.02964 0.03627,0.05707 0.05802,0.0788 0.0039,0.0051 0.01193,0.01165 0.02022,0.01819 -0.02822,0.0053 -0.05561,0.01343 -0.08175,0.02178"
       style="fill:#384f51;fill-opacity:1;fill-rule:nonzero;stroke:none;stroke-width:0.0116887"
       id="path1166" />
    <path
       d="m 32.99191,34.303927 c 0.03763,0.0047 0.07609,0.01506 0.111957,0.02763 0,0 0,0 0,0 -0.03607,-0.0092 -0.07306,-0.01905 -0.112042,-0.02769"
       style="fill:#d0aa8f;fill-opacity:1;fill-rule:nonzero;stroke:none;stroke-width:0.0116887"
       id="path1168" />
    <path
       d="m 32.98417,34.30241 c 0.0016,7.15e-4 0.0042,7.15e-4 0.0077,9.79e-4 0.03897,0.0087 0.076,0.0185 0.112056,0.02769 -7.14e-4,0.0049 -9.26e-4,0.01111 -0.0021,0.01738 -0.04744,-0.0217 -0.08635,-0.0365 -0.112804,-0.04528 -0.0011,7.14e-4 -0.0018,-7.14e-4 -0.0024,-9.26e-4"
       style="fill:#384f51;fill-opacity:1;fill-rule:nonzero;stroke:none;stroke-width:0.0116887"
       id="path1170" />
    <path
       d="m 34.031176,37.659066 c -0.582641,-1.229032 -1.208317,-1.897514 -1.200965,-2.915722 0.02621,-0.0084 0.05355,-0.01605 0.08191,-0.02179 0.01598,0.01321 0.03742,0.02863 0.06353,0.04609 0.0235,0.01537 0.05026,0.03315 0.08075,0.05096 -0.01069,0.968127 0.528091,1.549834 1.09885,2.744251 -0.01938,0.02019 -0.03847,0.0393 -0.05903,0.05989 -0.01942,0.01288 -0.0413,0.02522 -0.06505,0.03636"
       style="fill:#485f61;fill-opacity:1;fill-rule:nonzero;stroke:none;stroke-width:0.0116887"
       id="path1172" />
    <path
       d="m 32.975668,34.767544 c -0.02611,-0.01738 -0.04756,-0.03277 -0.06352,-0.04601 -0.0084,-0.0058 -0.01539,-0.01243 -0.02034,-0.0182 -0.02177,-0.0217 -0.04109,-0.04916 -0.058,-0.07882 0.0044,-0.101445 0.01743,-0.207165 0.0356,-0.316195 0.03563,-0.0094 0.0747,-0.01042 0.11478,-0.0051 7.14e-4,7.15e-4 0.0014,8.47e-4 0.0024,9.26e-4 0.02632,0.0089 0.06535,0.02371 0.112733,0.04537 -0.02815,0.167168 -0.04252,0.322725 -0.04422,0.46953 -0.03055,-0.01786 -0.05735,-0.03564 -0.0808,-0.05117"
       style="fill:#56716d;fill-opacity:1;fill-rule:nonzero;stroke:none;stroke-width:0.0116887"
       id="path1174" />
    <path
       d="m 33.167932,34.035385 c 3.605495,1.846566 5.633632,0.270144 7.122305,1.723916 0.274602,0.267318 0.271702,1.897444 -7.15e-4,2.081142 -0.870976,0.587132 -3.297255,-0.186732 -6.027483,-0.04817 -0.746838,-1.660416 -1.493785,-2.175757 -1.094017,-3.75689"
       style="fill:#ecbe46;fill-opacity:1;fill-rule:nonzero;stroke:none;stroke-width:0.0116887"
       id="path1176" />
    <path
       d="m 33.167932,34.035385 c -0.258996,1.025254 -0.03632,1.602984 0.355985,2.33455 1.868533,-1.726032 5.559943,0.266559 5.501449,-1.238952 -1.364632,-0.242083 -3.173906,0.278751 -5.857434,-1.095598"
       style="fill:#dfaa34;fill-opacity:1;fill-rule:nonzero;stroke:none;stroke-width:0.0116887"
       id="path1178" />
    <path
       d="m 40.451054,37.465786 c 0.06855,-0.570643 0.139453,-0.984536 -0.07262,-1.512418 -0.325441,0.113397 -0.269434,1.087977 0.07262,1.512418"
       style="fill:#fcd97c;fill-opacity:1;fill-rule:nonzero;stroke:none;stroke-width:0.0116887"
       id="path1180" />
    <path
       d="m 40.447809,36.214395 1.815376,0.22515 -0.369266,0.74325 -1.433276,0.01176 c 0,0 -0.304529,-0.804055 -0.01284,-0.980154"
       style="fill:#f4924c;fill-opacity:1;fill-rule:nonzero;stroke:none;stroke-width:0.0116887"
       id="path1182" />
    <path
       d="m 38.74337,37.930536 c -0.0021,-0.211413 -0.522535,-0.415608 -1.18605,-0.462506 -0.526514,-0.03804 -0.988847,0.03477 -1.187157,0.169947 l 1.244766,0.310677 0.0098,7.68e-4 0.04041,-0.306896 1.078347,0.287281"
       style="fill:#cf3c75;fill-opacity:1;fill-rule:nonzero;stroke:none;stroke-width:0.0116887"
       id="path1184" />
    <path
       d="m 38.735531,37.976616 -0.892658,-0.169171 -0.02098,0.162066 c 0.309333,0.03121 0.599768,0.05843 0.868627,0.0752 0.02168,-0.02113 0.03685,-0.04413 0.04513,-0.06803"
       style="fill:#cf3c75;fill-opacity:1;fill-rule:nonzero;stroke:none;stroke-width:0.0116887"
       id="path1186" />
    <path
       d="m 36.267921,37.773232 c -0.0018,0.01868 0,0.03653 0.0044,0.05362 0.234633,0.0172 0.464178,0.03712 0.687483,0.05778 l -0.644569,-0.201683 c -0.02695,0.02858 -0.04432,0.05858 -0.04821,0.09028"
       style="fill:#cf3c75;fill-opacity:1;fill-rule:nonzero;stroke:none;stroke-width:0.0116887"
       id="path1188" />
    <path
       d="m 35.381923,37.390842 0.93418,0.292107 0.644536,0.201683 c 0.224712,0.02171 0.443858,0.04324 0.65429,0.06402 l -1.244766,-0.310677 -0.98824,-0.247135"
       style="fill:#fcd97c;fill-opacity:1;fill-rule:nonzero;stroke:none;stroke-width:0.0116887"
       id="path1190" />
    <path
       d="m 37.665073,37.643269 -0.04041,0.306994 c 0.06669,0.0054 0.132115,0.01288 0.197223,0.01926 l 0.02098,-0.162073 0.892665,0.169171 0.457168,0.08625 c 0.01585,7.14e-4 0.03202,0 0.04804,7e-6 L 38.74337,37.930537 37.665073,37.64327"
       style="fill:#fcd97c;fill-opacity:1;fill-rule:nonzero;stroke:none;stroke-width:0.0116887"
       id="path1192" />
    <path
       d="m 37.564298,35.229718 -0.159963,0.189781 c 0,0 0.79079,0.406199 1.579107,0.649354 -0.563471,-0.280081 -0.999222,-0.56981 -1.419144,-0.839135"
       style="fill:#dfaa34;fill-opacity:1;fill-rule:nonzero;stroke:none;stroke-width:0.0116887"
       id="path1194" />
    <path
       d="m 40.284854,37.843513 v 0 c 0,0 0,0 0,0"
       style="fill:#d0aa8f;fill-opacity:1;fill-rule:nonzero;stroke:none;stroke-width:0.0116887"
       id="path1196" />
    <path
       d="m 40.438058,37.500013 c 0.0016,-0.01305 0.0042,-0.02697 0.0079,-0.04015 v 0 c -0.0016,0.01307 -0.0047,0.02711 -0.0079,0.04009"
       style="fill:#b67020;fill-opacity:1;fill-rule:nonzero;stroke:none;stroke-width:0.0116887"
       id="path1198" />
    <path
       d="m 41.109951,36.295866 1.153234,0.143679 -1.153114,-0.143594 v 0"
       style="fill:#d0aa8f;fill-opacity:1;fill-rule:nonzero;stroke:none;stroke-width:0.0116887"
       id="path1200" />
    <path
       d="m 40.463514,36.216279 c 0,0 0,0 0,0 l 0.646557,0.07967 v 0 l -0.646557,-0.07967"
       style="fill:#b67020;fill-opacity:1;fill-rule:nonzero;stroke:none;stroke-width:0.0116887"
       id="path1202" />
    <path
       d="m 40.360552,35.869428 c -0.02057,-0.04788 -0.04396,-0.08538 -0.07031,-0.110127 0.02637,0.02473 0.04994,0.06235 0.07058,0.110331 0,0 -7.15e-4,0 -7.15e-4,0"
       style="fill:#d0aa8f;fill-opacity:1;fill-rule:nonzero;stroke:none;stroke-width:0.0116887"
       id="path1204" />
    <path
       d="m 40.430177,36.098846 c 0,-7.67e-4 0,-0.0016 -7.15e-4,-0.0019 -0.01884,-0.08821 -0.04159,-0.165699 -0.06876,-0.226384 0,0 7.14e-4,0 7.14e-4,0 0.02767,0.06108 0.05038,0.139679 0.06929,0.229193"
       style="fill:#b67020;fill-opacity:1;fill-rule:nonzero;stroke:none;stroke-width:0.0116887"
       id="path1206" />
    <path
       d="m 40.290237,35.759301 c -0.109725,-0.106976 -0.222275,-0.19728 -0.338303,-0.274059 -0.05532,-0.03665 -0.110441,-0.07087 -0.167704,-0.101183 0.09183,0.04485 0.192088,0.10021 0.280007,0.158404 0.105988,0.0701 0.192931,0.14485 0.22171,0.212697 l 0.0028,0.0026"
       style="fill:#d0aa8f;fill-opacity:1;fill-rule:nonzero;stroke:none;stroke-width:0.0116887"
       id="path1208" />
    <path
       d="m 39.962009,37.98305 c -0.09933,-0.410351 -0.17653,-0.846659 -0.22376,-1.293435 -0.06362,-0.595743 -0.181829,-0.918517 -0.135855,-1.386921 0.04959,0.0194 0.112868,0.04788 0.181836,0.08136 0.05721,0.03038 0.112381,0.06454 0.167704,0.101184 0.116028,0.07678 0.228578,0.167082 0.338303,0.274059 v 0 0 c 0.02637,0.02473 0.04975,0.06225 0.07031,0.110126 0.02711,0.06059 0.04987,0.138155 0.06872,0.226392 -0.01481,-0.04645 -0.03151,-0.09414 -0.05083,-0.142452 -0.32403,0.113087 -0.269808,1.077909 0.06723,1.506464 -0.0012,0.01326 -0.0047,0.02709 -0.0078,0.04012 -0.03455,0.1703 -0.08401,0.296524 -0.148695,0.340437 v 0 0 c -0.0011,8.47e-4 -0.0021,0.0016 -0.0028,0.002 v 0 c -0.09117,0.06061 -0.20036,0.105629 -0.322879,0.139461"
       style="fill:#c27f2a;fill-opacity:1;fill-rule:nonzero;stroke:none;stroke-width:0.0116887"
       id="path1210" />
    <path
       d="m 40.451054,37.465786 -0.0032,-0.0064 c 0,0 -7.14e-4,7.15e-4 0,7.67e-4 v 0 c -0.337217,-0.428505 -0.391354,-1.393334 -0.06734,-1.506421 0.01933,0.04811 0.036,0.09593 0.05087,0.142473 7.14e-4,0 7.14e-4,0.0011 7.14e-4,0.0019 7.14e-4,9.26e-4 7.14e-4,0.0019 8.47e-4,0.0036 0.01183,0.03837 0.02283,0.07493 0.03148,0.112543 h 7.14e-4 c 0,0 0,0 0,0 l -0.01588,-0.0012 c -0.291539,0.176114 0.01297,0.980261 0.01297,0.980261 l 0.02311,-7.15e-4 c -0.01014,0.08731 -0.02179,0.177532 -0.03274,0.271696"
       style="fill:#cf9045;fill-opacity:1;fill-rule:nonzero;stroke:none;stroke-width:0.0116887"
       id="path1212" />
    <path
       d="m 40.460643,37.19455 c 0,0 -0.304529,-0.804055 -0.01284,-0.980155 l 0.01571,0.0012 0.646551,0.07962 1.153114,0.143567 -0.369267,0.743299 -1.410339,0.01127 c 0,0 0,0 0,0 l -0.02306,7.14e-4"
       style="fill:#c95f2f;fill-opacity:1;fill-rule:nonzero;stroke:none;stroke-width:0.0116887"
       id="path1214" />
    <path
       d="m 43.045749,30.197915 c 1.683015,-1.427001 2.776178,-2.003919 3.807069,-1.760319 0.512892,0.121983 -0.02415,1.351876 -0.02415,1.351876 l -3.782919,0.408443"
       style="fill:#834133;fill-opacity:1;fill-rule:nonzero;stroke:none;stroke-width:0.0116887"
       id="path1216" />
    <path
       d="m 41.976046,31.755919 c 0.650427,-2.109287 1.242606,-3.12419 2.183362,-3.281317 0.467946,-0.07886 0.636292,1.379506 0.636292,1.379506 l -2.819654,1.901811"
       style="fill:#834133;fill-opacity:1;fill-rule:nonzero;stroke:none;stroke-width:0.0116887"
       id="path1218" />
    <path
       d="m 40.974831,34.102752 c -0.577886,-1.987437 0.277339,-4.408826 1.082664,-4.79128 0.401045,-0.190436 0.972012,1.275521 0.972012,1.275521 l -2.054676,3.515759"
       style="fill:#6b3029;fill-opacity:1;fill-rule:nonzero;stroke:none;stroke-width:0.0116887"
       id="path1220" />
    <path
       d="m 42.209232,36.879325 c -3.092479,-2.996939 -0.936742,-6.555878 1.445898,-7.53575 2.833607,-1.166534 5.514605,-0.703386 6.491592,0.09131 1.028929,0.837554 1.555203,2.193307 -0.372506,4.47832 0,0 1.176077,-1.261569 1.199254,-0.803949 0.312286,2.110433 -7.232477,4.550657 -7.43851,4.241934 -0.08826,-0.13184 -1.325728,-0.471865 -1.325728,-0.471865"
       style="fill:#834133;fill-opacity:1;fill-rule:nonzero;stroke:none;stroke-width:0.0116887"
       id="path1222"
       sodipodi:nodetypes="ccccccc" />
    <path
       d="m 44.383775,33.137323 c -0.908187,-0.991077 -1.544669,-2.245071 -1.86411,-3.304523 -1.93107,1.263985 -2.904267,4.532348 -0.310433,7.046525 0,0 1.237463,0.340025 1.325728,0.471865 0.148057,0.221467 3.951468,-1.357475 5.944285,-2.318001 -1.748759,-0.401076 -3.719386,-0.393241 -5.09547,-1.895866"
       style="fill:#6b3029;fill-opacity:1;fill-rule:nonzero;stroke:none;stroke-width:0.0116887"
       id="path1224"
       sodipodi:nodetypes="cccccc" />
    <path
       d="m 42.499286,38.521047 c -0.56841,-0.620737 -1.740624,-3.274275 -0.982571,-4.151306 0.592151,-0.80712 1.80619,-1.332106 4.313234,-1.144033 4.004783,0.300365 3.960516,0.981389 2.828181,2.803585 -1.764129,1.135009 -2.801899,2.051837 -2.398579,2.552284 -1.081677,0.611434 -3.021263,0.746559 -3.760265,-0.06053"
       style="fill:#f8b56d;fill-opacity:1;fill-rule:nonzero;stroke:none;stroke-width:0.0116887"
       id="path1226" />
    <path
       d="m 44.774879,36.135486 c 0.427732,-0.294908 1.15789,-0.166038 1.511949,0.163675 0.615922,0.572735 -0.507376,1.448763 -1.131743,0.89366 -0.362419,-0.321871 -0.766103,-0.790776 -0.380206,-1.057335"
       style="fill:#d95521;fill-opacity:1;fill-rule:nonzero;stroke:none;stroke-width:0.0116887"
       id="path1228" />
    <path
       d="m 44.849262,36.154282 c 0.508508,-0.303968 1.040737,-0.11291 1.377996,0.190994 0.615971,0.553233 -0.500327,1.360477 -1.175452,0.7559 -0.338684,-0.302411 -0.610189,-0.703371 -0.202544,-0.946894"
       style="fill:#fffae9;fill-opacity:1;fill-rule:nonzero;stroke:none;stroke-width:0.0116887"
       id="path1230" />
    <path
       d="m 45.160327,36.585059 c 0.161248,-0.165841 0.470394,-0.186069 0.688397,-0.04668 0.218535,0.141005 0.263698,0.388535 0.101875,0.55517 -0.162356,0.165121 -0.471008,0.186937 -0.689518,0.04594 -0.21729,-0.140321 -0.263688,-0.38844 -0.100754,-0.554429"
       style="fill:#7babc7;fill-opacity:1;fill-rule:nonzero;stroke:none;stroke-width:0.0116887"
       id="path1232" />
    <path
       d="m 45.741437,36.834212 c 0.04372,-0.04449 0.12839,-0.05095 0.186923,-0.01323 0.05993,0.03839 0.07254,0.106623 0.02821,0.151818 -0.0444,0.04525 -0.1284,0.05071 -0.188231,0.0124 -0.05858,-0.03767 -0.07128,-0.105985 -0.0269,-0.150986"
       style="fill:#9fd1e5;fill-opacity:1;fill-rule:nonzero;stroke:none;stroke-width:0.0116887"
       id="path1234" />
    <path
       d="m 46.369463,38.915855 c -0.0182,0.07602 -0.362635,0.09843 -0.555834,-0.08316 -0.192087,-0.18089 -0.189032,-0.2754 -0.09754,-0.35306 0.09047,-0.07818 0.760932,-0.855447 0.605893,-0.511948 -0.190056,0.423034 0.121137,0.640049 0.04748,0.948172"
       style="fill:#f8b56d;fill-opacity:1;fill-rule:nonzero;stroke:none;stroke-width:0.0116887"
       id="path1236" />
    <path
       d="m 45.962985,38.876633 c 0.03032,-0.03128 -0.0097,-0.12374 -0.09178,-0.206213 -0.08034,-0.08254 -0.173186,-0.124481 -0.204082,-0.09231 -0.03212,0.03135 0.008,0.123832 0.09006,0.206305 0.08206,0.08237 0.172092,0.123677 0.205807,0.09222"
       style="fill:#ef9a4a;fill-opacity:1;fill-rule:nonzero;stroke:none;stroke-width:0.0116887"
       id="path1238" />
    <path
       d="m 47.200237,36.271863 c -0.331481,-0.22551 -0.695392,-0.411403 -1.139483,-0.57331 l -0.109266,0.201305 c 0.421728,0.159463 0.775691,0.326574 1.099823,0.52401 l 0.148926,-0.152005"
       style="fill:#834133;fill-opacity:1;fill-rule:nonzero;stroke:none;stroke-width:0.0116887"
       id="path1240" />
    <path
       d="m 42.226186,33.986378 c 0.302962,0.172324 0.957026,-0.351741 1.975365,-0.825405 0,0 -0.649982,-1.186995 -1.741381,-0.601536 -1.091311,0.585407 -0.780747,1.115014 -0.233984,1.426941"
       style="fill:#6b3029;fill-opacity:1;fill-rule:nonzero;stroke:none;stroke-width:0.0116887"
       id="path1242" />
    <path
       d="m 42.239436,33.740724 c 0.194564,-0.191396 0.204936,-0.471759 0.02427,-0.626854 -0.181392,-0.154354 -0.485811,-0.124693 -0.680311,0.06673 -0.194804,0.191248 0.03743,0.65308 0.218934,0.807413 0.180615,0.155011 0.242429,-0.05587 0.437106,-0.24729"
       style="fill:#f8b56d;fill-opacity:1;fill-rule:nonzero;stroke:none;stroke-width:0.0116887"
       id="path1244" />
    <path
       d="m 42.197159,33.707951 c 0.13994,-0.137202 0.147483,-0.33874 0.01689,-0.44971 -0.129659,-0.111499 -0.348692,-0.09029 -0.488914,0.04796 -0.139637,0.13735 0.02727,0.469028 0.157579,0.579702 0.130379,0.110913 0.174286,-0.03976 0.314444,-0.177948"
       style="fill:#f4924c;fill-opacity:1;fill-rule:nonzero;stroke:none;stroke-width:0.0116887"
       id="path1246" />
    <path
       d="m 42.21592,33.824192 c 0.09198,-0.09064 0.09733,-0.224036 0.01185,-0.297731 -0.0862,-0.07298 -0.230703,-0.05857 -0.322954,0.03186 -0.09289,0.09133 0.01748,0.309845 0.103787,0.382877 0.08547,0.07379 0.114984,-0.02655 0.207313,-0.117009"
       style="fill:#f8b56d;fill-opacity:1;fill-rule:nonzero;stroke:none;stroke-width:0.0116887"
       id="path1248" />
    <path
       d="m 44.513527,36.93795 c -0.1103,0.06395 -0.343451,-0.07097 -0.55904,-0.283133 -0.215463,-0.212443 -0.331495,-0.422515 -0.221502,-0.486558 0.110758,-0.06487 0.374607,0.05479 0.589865,0.268203 0.215569,0.212443 0.301661,0.436859 0.190677,0.501488"
       style="fill:#ef9a4a;fill-opacity:1;fill-rule:nonzero;stroke:none;stroke-width:0.0116887"
       id="path1250" />
    <path
       d="m 47.796092,34.825456 c 0.622332,0.298316 0.980232,0.22611 0.491346,-0.271233 -0.488933,-0.497254 -0.89613,-0.843823 -0.02067,-0.551462 0.875545,0.294724 0.802845,0.07183 0.584017,-0.148865 0,0 0.430375,0.07837 0.493853,0.380731 0.185361,0.895262 -0.791068,-0.07747 -1.003046,0.01446 -0.229323,0.09874 0.462909,0.264838 0.412998,0.837894 -0.01803,0.199714 -0.958501,-0.261522 -0.958501,-0.261522"
       style="fill:#834133;fill-opacity:1;fill-rule:nonzero;stroke:none;stroke-width:0.0116887"
       id="path1252" />
    <path
       d="m 44.723712,38.886179 c 0.275727,-0.07422 0.429736,-0.255849 0.345048,-0.404749 -0.08351,-0.148181 -0.376212,-0.208696 -0.650892,-0.133851 -0.274581,0.07486 -0.430319,0.256625 -0.345017,0.404742 0.08466,0.148823 0.376195,0.208717 0.650861,0.133858"
       style="fill:#4d2521;fill-opacity:1;fill-rule:nonzero;stroke:none;stroke-width:0.0116887"
       id="path1254" />
    <path
       d="m 44.964564,38.682619 c 0.0494,-0.06015 0.06426,-0.128686 0.02912,-0.189745 -0.05239,-0.09336 -0.202801,-0.145274 -0.370314,-0.140017 0.06195,0.08135 0.143961,0.168571 0.241755,0.251643 0.03294,0.02795 0.06644,0.0551 0.09944,0.07812"
       style="fill:#fffae9;fill-opacity:1;fill-rule:nonzero;stroke:none;stroke-width:0.0116887"
       id="path1256" />
    <path
       d="m 39.887001,37.720704 c -0.536215,0.22812 -0.90382,0.504355 -0.820392,0.615643 0.08433,0.110899 0.586635,0.01679 1.123471,-0.212118 0.536289,-0.227962 0.903248,-0.503425 0.819951,-0.614691 -0.08403,-0.111873 -0.586487,-0.01684 -1.12303,0.211166"
       style="fill:#da7928;fill-opacity:1;fill-rule:nonzero;stroke:none;stroke-width:0.0116887"
       id="path1258" />
    <path
       d="M 44.764585,40.327555 C 42.166249,39.53154 40.410513,38.59168 39.144002,35.592071 l -0.549469,0.251139 c 0,0 0.94731,3.602464 6.08166,4.62505 l 0.08839,-0.140705"
       style="fill:#f8b56d;fill-opacity:1;fill-rule:nonzero;stroke:none;stroke-width:0.0116887"
       id="path1260" />
    <path
       d="m 41.135224,38.522599 c -0.779335,-0.685881 -1.433121,-1.607523 -1.991222,-2.930528 l -0.549469,0.251139 c 0,0 0.427933,1.627917 2.267387,3.005772 0.07909,-0.112642 0.170166,-0.221114 0.273304,-0.326383"
       style="fill:#f4924c;fill-opacity:1;fill-rule:nonzero;stroke:none;stroke-width:0.0116887"
       id="path1262" />
    <path
       d="m 39.121904,38.242183 c 0.5097,-0.507185 1.025638,-0.824473 1.806303,-0.762363 0,0 -1.405936,-1.969791 -2.520872,-2.321419 -0.847348,-0.267723 0.714569,3.083782 0.714569,3.083782"
       style="fill:#ecbe46;fill-opacity:1;fill-rule:nonzero;stroke:none;stroke-width:0.0116887"
       id="path1264" />
    <path
       d="m 41.018144,37.51859 -0.189533,-0.247826 c -0.860711,0.07572 -1.524201,0.338053 -1.968112,0.792176 l 0.197972,0.26209 c 0.404788,-0.54748 1.126084,-0.755703 1.959673,-0.80644"
       style="fill:#fcd97c;fill-opacity:1;fill-rule:nonzero;stroke:none;stroke-width:0.0116887"
       id="path1266" />
    <path
       d="m 43.739102,39.997031 c 0.09192,-0.05884 0.418825,0.207588 0.797849,0.05265 0.06397,-0.02613 0.157205,-0.07454 0.254078,-0.119098 0.17091,-0.07874 0.405712,-0.08354 0.448462,-0.0044 0.03631,0.06669 -0.137873,0.06514 -0.261769,0.118759 -0.108352,0.04701 -0.147538,0.06009 -0.12798,0.08884 0.0128,0.01957 0.169178,-0.01264 0.348459,-0.04307 0.228029,-0.03845 0.397151,-0.02926 0.436612,0.05192 0.03725,0.07724 -0.12954,0.06456 -0.326862,0.119732 -0.171006,0.04701 -0.249929,0.05713 -0.214856,0.135273 0.01668,0.03549 0.137125,0.01867 0.338151,0.02575 0.236305,0.0098 0.397426,0.06507 0.408376,0.131121 0.01758,0.09473 -0.10814,0.02249 -0.368568,0.0443 -0.337256,0.02627 -0.672116,0.0099 -0.787128,0.142692 -0.106906,0.122491 0.25279,0.428992 0.09977,0.463388 -0.122138,0.02674 -0.30983,-0.299234 -0.58928,-0.68338 C 43.970339,40.211687 43.643134,40.059937 43.7391,39.99758"
       style="fill:#f8b56d;fill-opacity:1;fill-rule:nonzero;stroke:none;stroke-width:0.0116887"
       id="path1268" />
  </g>
</svg>
