<?xml version="1.0" encoding="UTF-8" standalone="no"?>
<svg
   xmlns:dc="http://purl.org/dc/elements/1.1/"
   xmlns:cc="http://creativecommons.org/ns#"
   xmlns:rdf="http://www.w3.org/1999/02/22-rdf-syntax-ns#"
   xmlns:svg="http://www.w3.org/2000/svg"
   xmlns="http://www.w3.org/2000/svg"
   xmlns:sodipodi="http://sodipodi.sourceforge.net/DTD/sodipodi-0.dtd"
   xmlns:inkscape="http://www.inkscape.org/namespaces/inkscape"
   sodipodi:docname="tutorialFire.svg"
   inkscape:version="1.0 (1.0+r73+1)"
   id="svg5625"
   version="1.1"
   viewBox="0 0 53.279343 22.009245"
   height="22.009245mm"
   width="53.279343mm">
  <defs
     id="defs5619" />
  <sodipodi:namedview
     inkscape:window-maximized="1"
     inkscape:window-y="0"
     inkscape:window-x="0"
     inkscape:window-height="715"
     inkscape:window-width="1366"
     fit-margin-bottom="0"
     fit-margin-right="0"
     fit-margin-left="0"
     fit-margin-top="0"
     showgrid="false"
     inkscape:document-rotation="0"
     inkscape:current-layer="layer1"
     inkscape:document-units="mm"
     inkscape:cy="232.25322"
     inkscape:cx="228.40629"
     inkscape:zoom="0.7"
     inkscape:pageshadow="2"
     inkscape:pageopacity="0.0"
     borderopacity="1.0"
     bordercolor="#666666"
     pagecolor="#ffffff"
     id="base" />
  <metadata
     id="metadata5622">
    <rdf:RDF>
      <cc:Work
         rdf:about="">
        <dc:format>image/svg+xml</dc:format>
        <dc:type
           rdf:resource="http://purl.org/dc/dcmitype/StillImage" />
        <dc:title></dc:title>
      </cc:Work>
    </rdf:RDF>
  </metadata>
  <g
     transform="translate(-0.0240125,0.12998068)"
     id="layer1"
     inkscape:groupmode="layer"
     inkscape:label="Слой 1">
    <path
       sodipodi:nodetypes="sccccccccccccccccccscccccccccscccs"
       d="m 12.625463,0.107496 c -2.129366,1.038577 -2.181202,3.272041 -0.727087,4.570263 1.454256,1.298575 1.86971,3.9992386 -0.415479,3.9992396 -2.2850823,0 -1.7657823,-2.4928706 -1.7657833,-2.4928716 -2.129331,3.3757316 1.5064363,3.5838106 -0.363285,6.492111 -1.869723,2.908652 -4.31063,1.349972 -2.492871,-1.817977 1.817793,-3.168297 -0.727605,-5.037936 -0.727605,-5.037936 0.571324,3.0642286 -1.505689,4.674558 -4.414201,8.206215 -2.908335,3.53166 -1.24643498,7.89409 -1.24643498,7.89409 H 38.05492 l 3.896403,-0.0289 C 41.684559,22.00791 41.665036,13.18167 41.665036,13.18167 36.90761,11.912261 40.10561,9.8252076 35.996647,6.651837 c -2.54494,-2.285294 0,-4.466911 0,-4.466911 -2.389013,0.467431 -3.167647,2.285745 -2.129068,4.986259 2.437162,3.445619 0.623393,6.128205 -0.934828,5.037419 -1.557867,-1.090436 -0.57154,-2.8566734 -0.57154,-2.8566734 -1.142648,0.5715 -1.609862,1.6620864 -0.986504,3.9992394 0.623006,2.33715 -2.181537,3.89553 -1.714106,1.61024 0.467254,-2.285297 -1.610238,-2.804483 -1.610238,-2.804483 0,0 1.817986,2.129193 -0.259416,4.674133 -2.077369,2.54494 -3.323864,-0.31148 -2.389003,-1.66191 0.934863,-1.35044 1.038778,-3.531731 -1.661914,-5.141808 -2.700655,-1.6100784 -1.090889,-4.518071 -1.090889,-4.518071 -2.440764,1.713794 -1.765518,3.7390676 -0.467155,6.387724 1.298398,2.648655 -0.519348,3.687635 -0.519348,3.687635 0.259609,-2.54494 -1.558045,-3.168287 -1.558045,-3.168287 0,0 1.350409,3.739637 -1.454175,4.570777 -2.804442,0.8308 -5.193824,-1.92181 -1.610237,-4.363038 3.583587,-2.440869 1.817977,-5.816699 1.817977,-5.816699 0.259609,3.427589 -3.583761,4.206978 -3.583761,4.206978 C 17.559586,8.8331376 17.663431,6.547463 14.235701,4.158451 10.80797,1.76944 12.625463,0.107536 12.625463,0.107536 Z"
       style="fill:#f1521d;fill-opacity:1;fill-rule:nonzero;stroke:none;stroke-width:0.0352777"
       id="path96" />
    <path
       id="path98"
       style="fill:#f1521d;fill-opacity:1;fill-rule:nonzero;stroke:none;stroke-width:0.0352777"
       d="m 27.785036,8.6444656 c 0,0 -2.369783,-1.8280936 -1.015611,-4.2657876 C 28.123634,1.941336 27.068333,0 27.068333,0 c 0,0 2.812981,3.160889 1.122963,4.988278 -1.690018,1.827036 -0.40626,3.6561876 -0.40626,3.6561876" />
    <path
       sodipodi:nodetypes="ccccccccccccccccccccccccccscccccccc"
       d="m 12.787727,11.318697 c -1.794192,0.575381 -2.166745,1.862163 -1.591117,3.622523 0.575451,1.76036 -1.083138,3.24993 -1.083138,3.24993 0.54169,-2.06516 -0.8805663,-2.84376 -0.8805663,-2.84376 0.8801453,2.84374 -2.843374,6.80475 -6.059579,3.82561 -3.21606298,-2.97921 0.304374,-6.02599 0.304374,-6.02599 -1.963419,0.91405 -2.66288598,3.61218 -2.66288598,3.61218 -0.901947,2.87091 0.27078398,5.16144 0.27078398,5.16144 H 46.086472 v -4.64777 c -0.733436,-1.18216 -0.121441,-2.53473 -0.121441,-2.53473 -1.997427,2.13289 -0.440301,1.82807 -1.049547,4.19767 -0.6096,2.36968 -4.372173,0.11351 -3.627459,-2.12098 -0.359547,-1.70305 -1.179626,-1.99767 -1.838168,-2.23289 -1.353961,-0.88018 -1.714535,-2.799053 -1.714535,-2.799053 -1.17299,1.040972 0.81262,2.357483 1.150919,3.576333 0.338667,1.2185 -0.268216,2.12122 -0.606528,0.83464 -0.338667,-1.28658 -1.997295,-0.88005 -1.997295,-0.88005 2.945342,1.79423 1.117246,3.55431 1.117246,3.55431 -0.169334,-2.33574 -1.421855,-1.86164 -2.403989,-2.50476 -0.982487,-0.64347 -0.236677,-2.60707 -0.236677,-2.60707 -1.658763,1.82844 -1.151038,2.57291 0.03359,4.43487 1.184981,1.86196 -3.249507,2.77612 -2.437062,0.77876 0.812449,-1.99743 0.304893,-2.87734 0.304893,-2.87734 -0.440267,3.04694 -3.928443,4.70565 -3.928443,4.70565 0.540631,-1.42173 -0.168466,-2.53938 -0.168466,-2.53938 0,0 -0.507558,2.74223 -2.94504,2.64067 -2.437448,-0.10157 -2.302186,-2.26808 -2.302186,-2.26808 -0.203094,1.59131 -1.421618,1.7601 -1.421618,1.7601 1.421835,-1.7604 0.609265,-3.24993 0.609265,-3.24993 -0.575451,3.58842 -3.825606,3.72432 -3.825606,3.72432 0.744819,-0.50797 0.473873,-1.72651 0.473873,-1.72651 -1.828236,2.80987 -8.632996,3.24968 -6.533969,0.30437 2.098887,-2.94499 -0.372333,-4.60405 -0.812353,-5.99188 -0.440126,-1.38818 0.981852,-2.133203 0.981851,-2.133203 z"
       style="fill:#f9de0c;fill-opacity:1;fill-rule:nonzero;stroke:none;stroke-width:0.0352777"
       id="path110" />
    <path
       id="path122"
       style="fill:#f9de0c;fill-opacity:1;fill-rule:nonzero;stroke:none;stroke-width:0.0352777"
       d="m 4.9020367,19.62997 c 0,0 -3.252294,-0.43992 -2.016619,-3.99486 0,0 0.04618,0.5715 0.237031,0.9846 0,0 -0.232198,-0.68227 0.406224,-1.50918 0.744855,-0.96485 1.134145,-1.43863 1.286404,-2.657475 0,0 0.457094,1.015645 -0.502144,2.936525 -0.950983,1.90464 -0.0014,3.56023 0.589104,4.24039" />
    <g
       transform="matrix(-0.02531098,0,0,-0.02004787,417.08194,69.22408)"
       id="g1445">
      <path
         style="fill:#f1521d;fill-opacity:1;fill-rule:nonzero;stroke:none;stroke-width:0.133333"
         d="m 1962.4941,902.44727 c 4.1192,22.09466 -10.8591,33.70263 -31.83,59.16796 -20.9708,25.46534 -8.9883,56.92187 -8.9883,56.92187 h 35.6543 20.2949 v -57.92968 c -2.8604,1.91356 -5.6059,2.61981 -7.9238,2.2832 -6.6642,-0.96777 -9.7955,-10.47098 -1.9649,-24.11914 13.1068,-22.84266 -5.2422,-36.32421 -5.2422,-36.32421 z"
         id="path66"
         transform="matrix(7.5000002,0,0,-7.5000002,0,10000)" />
      <path
         sodipodi:nodetypes="ccsccc"
         style="fill:#f9de0c;fill-opacity:1;fill-rule:nonzero;stroke:none"
         d="m 14832.188,2360.9715 2.172,161.1468 c -43.447,-62.5284 -175.059,-105.8228 -275.748,-12.553 -173.926,161.11 16.477,325.88 16.477,325.88 -106.184,-49.43 -144.02,-195.33 -144.02,-195.33 -48.781,-155.26 14.645,-279.14 14.645,-279.14"
         id="path80" />
      <path
         style="fill:#f9de0c;fill-opacity:1;fill-rule:nonzero;stroke:none"
         d="m 14652.104,2484.8553 c 0,0 -175.879,23.8 -109.054,216.03 0,0 2.496,-30.9 12.816,-53.24 0,0 -12.551,36.9 21.969,81.62 40.277,52.17 61.332,77.8 69.57,143.71 0,0 24.715,-54.92 -27.156,-158.8 -51.43,-103 -0.07,-192.53 31.855,-229.32"
         id="path94" />
    </g>
    <rect
       y="-0.12998068"
       x="0.024012497"
       height="22.009245"
       width="53.279343"
       id="rect6208"
       style="fill:#00ff00;fill-opacity:0.5;stroke-width:0.0272521" />
  </g>
</svg>
